<?xml version="1.0" encoding="UTF-8"?>
<svg version="1.1" xmlns="http://www.w3.org/2000/svg" width="1024" height="1536">
<path d="M0 0 C337.92 0 675.84 0 1024 0 C1024 506.88 1024 1013.76 1024 1536 C686.08 1536 348.16 1536 0 1536 C0 1029.12 0 522.24 0 0 Z " fill="#010101" transform="translate(0,0)"/>
<path d="M0 0 C337.92 0 675.84 0 1024 0 C1024 506.88 1024 1013.76 1024 1536 C686.08 1536 348.16 1536 0 1536 C0 1029.12 0 522.24 0 0 Z M415 204 C415.57584432 201.61435923 416.22227595 199.33317216 417 197 C417.51929189 192.47740479 417.51929189 192.47740479 416.0234375 188.28125 C412.8134038 184.26378451 410.1438583 182.27191794 405.07421875 181.62890625 C384.11600033 181.21796079 365.40494014 192.27965684 350.59326172 206.41748047 C338.68419286 218.24625527 329.85385206 232.15859749 322.1875 247 C321.68541016 247.96550781 321.18332031 248.93101562 320.66601562 249.92578125 C319.44106789 252.28234737 318.21913585 254.6404235 317 257 C315.83575894 257.00358253 315.83575894 257.00358253 314.64799786 257.00723743 C295.68094771 257.06661365 276.71402519 257.14230617 257.74711132 257.23571491 C248.57450199 257.28050311 239.40193002 257.31995593 230.22924805 257.34643555 C222.22567909 257.36955417 214.22223006 257.40310403 206.2187565 257.44870156 C201.98883457 257.47244875 197.75903004 257.4912977 193.5290432 257.49761391 C154.70334705 257.56333947 121.91638036 262.13125783 93 291 C72.79349413 313.06186117 63.64001295 339.48869169 63.74552441 369.0854063 C63.743128 370.45179043 63.73985863 371.81817325 63.73580781 373.18455347 C63.72725409 376.91325927 63.73098639 380.64186335 63.73686353 384.37057051 C63.74105666 388.4371404 63.73361902 392.50369249 63.72771102 396.57025796 C63.71896834 403.68905435 63.71763003 410.80782197 63.72121429 417.92662239 C63.72653031 428.51293965 63.72041693 439.09922914 63.71213136 449.68554338 C63.69690101 469.6947235 63.69518532 489.70389096 63.69765439 509.71307566 C63.69948801 525.16643363 63.697726 540.61978746 63.69342995 556.07314491 C63.69282754 558.29438692 63.69222634 560.51562894 63.69162634 562.73687095 C63.69071908 566.08420126 63.68981041 569.43153157 63.68889399 572.77886188 C63.68046581 603.89617264 63.67612782 635.01348183 63.68030071 666.13079357 C63.68045709 667.3035641 63.68061346 668.47633464 63.68077458 669.68464367 C63.68158035 675.62851749 63.68242612 681.5723913 63.68328788 687.51626512 C63.68345897 688.69670664 63.68363006 689.87714817 63.68380633 691.09336065 C63.68415299 693.48049972 63.68450152 695.86763879 63.68485192 698.25477786 C63.69020857 735.39487757 63.68227973 772.53495354 63.66381836 809.67504883 C63.64309382 851.41687029 63.63237654 893.15867704 63.63639385 934.90050393 C63.63678918 939.35292804 63.63715073 943.80535215 63.63749123 948.25777626 C63.63758196 949.35404885 63.63767269 950.45032144 63.63776617 951.57981441 C63.63893125 968.11597711 63.6322906 984.65212494 63.62167931 1001.18828392 C63.60962036 1019.99941423 63.60807634 1038.81051181 63.62046947 1057.62164261 C63.62709086 1068.14234276 63.62548364 1078.66296463 63.61188096 1089.18365848 C63.60361885 1096.22021886 63.60635685 1103.25672079 63.61785623 1110.29327645 C63.62409521 1114.29645031 63.62575892 1118.29947176 63.61399289 1122.30263665 C63.4015573 1150.77005571 63.4015573 1150.77005571 69.75 1178.375 C70.00676514 1179.10992676 70.26353027 1179.84485352 70.52807617 1180.60205078 C74.78599415 1192.36030729 81.17356211 1202.29904815 89 1212 C89.61359375 1212.77988281 90.2271875 1213.55976562 90.859375 1214.36328125 C108.80679942 1235.95387943 136.99811523 1248.02080689 164.43819 1250.80583869 C173.87576317 1251.52111874 183.39534535 1251.28036569 192.8529578 1251.26313647 C196.38499845 1251.25893096 199.91701895 1251.26638787 203.44905454 1251.27228898 C209.62782146 1251.28101857 215.80655522 1251.28237468 221.98532677 1251.27878571 C231.17387359 1251.27346267 240.36238851 1251.27959008 249.55093187 1251.28786864 C266.9193959 1251.30308754 284.28784533 1251.30481586 301.65631463 1251.30234561 C315.07159652 1251.30051098 328.48687363 1251.30227612 341.90215492 1251.30657005 C343.83141534 1251.30717246 345.76067575 1251.30777366 347.68993616 1251.30837366 C350.59737054 1251.30928094 353.50480492 1251.31018961 356.4122393 1251.31110601 C383.43528117 1251.31953247 410.45832125 1251.32387338 437.48136425 1251.31969929 C438.49952608 1251.31954291 439.51768791 1251.31938654 440.56670313 1251.31922542 C445.72681704 1251.31841967 450.88693094 1251.3175739 456.04704484 1251.31671212 C457.0718071 1251.31654103 458.09656937 1251.31636994 459.15238503 1251.31619367 C461.22470219 1251.31584701 463.29701935 1251.31549848 465.36933651 1251.31514808 C497.60894675 1251.30979183 529.84852963 1251.31771985 562.08813477 1251.33618164 C598.33426444 1251.35691357 634.58037717 1251.36762205 670.82651311 1251.36360615 C674.69393082 1251.36321083 678.56134853 1251.36284928 682.42876625 1251.36250877 C683.38097727 1251.36241804 684.33318828 1251.36232731 685.31425418 1251.36223383 C699.66734163 1251.36106953 714.02041193 1251.36770343 728.3734951 1251.37832069 C744.70434116 1251.39038884 761.03514951 1251.39191309 777.36599614 1251.37953053 C786.49565807 1251.37291729 795.62522976 1251.37449742 804.7548844 1251.38811904 C810.86545898 1251.3963973 816.97596637 1251.39362243 823.08653556 1251.38214377 C826.55999699 1251.37592059 830.03328311 1251.37419927 833.50673404 1251.38600711 C869.79292364 1251.48437053 901.10269255 1245.85067758 928.52734375 1220.46875 C946.23140058 1202.79266166 959.99946192 1177.65910819 961.12608917 1152.14446834 C961.12660441 1151.14571669 961.12711965 1150.14696503 961.1276505 1149.11794817 C961.13066647 1147.95609659 961.13368244 1146.794245 961.1367898 1145.59718579 C961.13502033 1144.3276277 961.13325086 1143.0580696 961.13142776 1141.75004005 C961.13307823 1140.37672437 961.13516489 1139.00340914 961.13764787 1137.63009471 C961.1432136 1133.84489055 961.14254227 1130.05970902 961.14087028 1126.27450209 C961.14013942 1122.16061351 961.14516156 1118.04673133 961.1494453 1113.93284547 C961.15702806 1105.76820792 961.1592185 1097.6035769 961.15977435 1089.43893619 C961.16068773 1079.66123791 961.16735453 1069.88354569 961.17412117 1060.10585002 C961.19018686 1036.47131926 961.19608524 1012.83678914 961.20086992 989.2022539 C961.20320544 978.0218183 961.20680806 966.84138322 961.2105653 955.66094802 C961.22340171 917.39078533 961.23412051 879.12062294 961.2375679 840.85045815 C961.23778953 838.44770691 961.23801132 836.04495567 961.23823325 833.64220443 C961.23845389 831.23363651 961.23867438 828.8250686 961.2388947 826.41650069 C961.23933725 821.58447051 961.23978437 816.75244033 961.24023438 811.92041016 C961.24034377 810.72234609 961.24045316 809.52428203 961.24056586 808.289913 C961.24419615 769.44638438 961.26011466 730.60287443 961.28342474 691.75935295 C961.30802297 650.69419756 961.32174075 609.62905284 961.32293582 568.56388986 C961.32310727 564.05550599 961.3233227 559.54712212 961.32357025 555.03873825 C961.3236539 553.37359543 961.3236539 553.37359543 961.32373925 551.67481335 C961.32488975 533.81248069 961.33591174 515.95016718 961.35045731 498.08784098 C961.36482661 480.1313641 961.36805685 462.17491177 961.36001733 444.21843071 C961.35556302 433.552723 961.35941377 422.88709454 961.37525584 412.22139725 C961.38501545 405.09172802 961.38381819 397.96211423 961.37381961 390.83244549 C961.36843466 386.77348791 961.36769451 382.71468238 961.38032833 378.65573747 C961.48454822 342.95386692 955.48268915 315.41374045 930.48828125 288.43359375 C907.15773894 265.61581061 877.69761155 257.7756431 845.87695312 257.92163086 C844.26610929 257.92515315 842.65526415 257.92811826 841.04441833 257.93057251 C837.59327902 257.93621631 834.14215585 257.94421334 830.69102478 257.95359612 C825.22665429 257.96684835 819.76235367 257.965023 814.29797363 257.95936584 C812.91053396 257.95798572 812.91053396 257.95798572 811.49506521 257.95657772 C808.64905373 257.953608 805.80304251 257.95044373 802.95703125 257.94726562 C791.20478436 257.93447969 779.45287208 257.93254343 767.70068359 257.97583008 C759.10849805 258.00737039 750.51681899 258.01059986 741.9246192 257.98107058 C737.38570501 257.9665584 732.84780502 257.96623198 728.30897522 258.00047112 C724.04021324 258.03240257 719.77311326 258.02673712 715.50438118 257.99296951 C713.94438173 257.98717936 712.38426045 257.99487538 710.82441521 258.01756096 C701.82857223 258.13973746 695.73815713 257.39721874 688.98574066 250.93856144 C688.33044624 250.29883616 687.67515182 249.65911089 687 249 C672.89995113 239.5015783 653.82530461 233.52957315 637 232 C636.938125 230.39125 636.938125 230.39125 636.875 228.75 C635.32728389 216.91206326 627.30249719 206.87907605 618.12890625 199.77734375 C591.49407503 181.98753763 553.72051971 184.84614542 523.72192383 190.67626953 C513.26649289 192.82422799 503.08740865 195.51391025 493 199 C493.32097656 198.113125 493.64195312 197.22625 493.97265625 196.3125 C495.50080645 191.38523243 496.47527453 185.86826282 494.01953125 181.09375 C491.01387206 177.3204917 488.08436734 175.26206958 483.328125 174.6640625 C457.39855119 174.33500699 434.49697757 188.06334008 415 204 Z " fill="#FEFCF7" transform="translate(0,0)"/>
<path d="M0 0 C1.54296875 1.56640625 1.54296875 1.56640625 3.1875 3.5625 C36.80666468 42.90110763 92.13482774 63.22579601 138.60162354 82.97943115 C145.11255026 85.74999244 151.61646223 88.53700685 158.12121582 91.32202148 C160.38293123 92.28916556 162.64591151 93.25329307 164.90917969 94.21679688 C166.29233534 94.80725035 167.67547428 95.39774301 169.05859375 95.98828125 C170.25798584 96.49915283 171.45737793 97.01002441 172.69311523 97.53637695 C175.84882594 98.93309055 178.91923919 100.44653507 182 102 C182.02363234 117.5803849 182.04112495 133.16076475 182.05181217 148.74116325 C182.05691203 155.97962938 182.06386016 163.21808408 182.07543945 170.45654297 C182.1925899 245.28555418 182.1925899 245.28555418 180.21742249 270.8757019 C179.27546031 279.78262354 179.27546031 279.78262354 182 288 C187.25200726 291.77067188 192.79167317 291.65873235 199 291 C202.81216704 290.09601186 205.44207133 288.52777036 208.3125 285.8125 C213.82654223 276.62242962 213.0981507 264.08077683 213.54272461 253.66186523 C213.58454581 252.68256011 213.62636702 251.70325499 213.66945553 250.69427395 C214.15757138 238.27604796 214.22598563 225.8531105 214.30332303 213.42680287 C214.32565272 209.98490619 214.35280464 206.54304708 214.37937927 203.10118103 C214.42868738 196.62438742 214.47384745 190.14757227 214.51740164 183.67073768 C214.56731378 176.27975172 214.62202621 168.88880351 214.67708123 161.49785435 C214.7899474 146.3319383 214.89698241 131.1659864 215 116 C216.01758896 116.2131636 217.03517792 116.42632721 218.08360291 116.64595032 C228.8486308 118.78904708 239.11399448 119.40446493 250.06640625 119.29296875 C251.72362376 119.28735274 253.38084635 119.28309217 255.03807068 119.28010559 C259.33701055 119.26881417 263.63563173 119.23948857 267.93444824 119.20599365 C272.34622897 119.17494786 276.7580627 119.16152761 281.16992188 119.14648438 C289.78009191 119.1145986 298.39000599 119.0636004 307 119 C307.08653838 127.13678749 306.8196847 135.22571609 306.4140625 143.3515625 C306.32015448 145.30195453 306.22625016 147.25234674 306.13250065 149.20274639 C306.03310504 151.26243548 305.93252517 153.322064 305.83169556 155.38168335 C305.51482621 161.86690818 305.21001316 168.3527063 304.90405464 174.83845329 C304.80066128 177.02988659 304.69709395 179.22131161 304.5934906 181.41273499 C304.39519846 185.60846828 304.19749527 189.80422913 304 194 C303.94245544 195.22116516 303.88491089 196.44233032 303.82562256 197.70050049 C302.78979337 219.77673047 301.82007583 241.83319701 301.8125 263.9375 C301.81150299 264.69872162 301.81050598 265.45994324 301.80947876 266.24423218 C300.85141565 282.21062877 300.85141565 282.21062877 307 296 C312.20021287 299.09424431 318.06081438 299.93994068 324 299 C327.63115982 297.78546112 331.02317821 296.59161472 333.08584595 293.23074341 C334.13666597 290.666504 334.25135819 288.80949169 334.25537109 286.04248047 C334.26249115 285.0340358 334.26961121 284.02559113 334.27694702 282.98658752 C334.27578888 281.87468552 334.27463074 280.76278351 334.2734375 279.6171875 C334.29101108 277.12865739 334.30927967 274.64013213 334.328125 272.15161133 C334.33552499 270.79595058 334.34268121 269.44028848 334.34960938 268.08462524 C334.52044329 237.40031568 335.57724766 206.7628592 336.86194611 176.10709381 C336.99952774 172.8237702 337.13591915 169.54039871 337.27215576 166.25701904 C337.53122671 160.03183365 337.7956566 153.80688785 338.0625 147.58203125 C338.10257801 146.63930799 338.14265602 145.69658474 338.18394852 144.72529411 C338.6508361 133.80508499 339.20807425 122.90192206 340 112 C340.85574112 111.78310516 341.71148224 111.56621033 342.59315491 111.34274292 C389.22471249 99.49382648 434.96713036 82.26093541 473 52 C473.93070313 51.26136719 474.86140625 50.52273438 475.8203125 49.76171875 C492.26851046 36.49778196 508.09650554 21.78046183 521 5 C522.01454453 3.76563749 523.03434677 2.53555041 524.0625 1.3125 C524.701875 0.549375 525.34125 -0.21375 526 -1 C541.36301707 4.55031156 555.89978305 13.03709158 568 24 C568.97066406 24.84046875 569.94132813 25.6809375 570.94140625 26.546875 C602.76290105 54.41618094 622.55739874 95.17246034 636.95703125 134.18261719 C637.983329 136.95496645 639.03694946 139.71572021 640.09375 142.4765625 C653.50823899 178.052388 663.15072211 215.06901361 672 252 C672.23090332 252.9595459 672.46180664 253.9190918 672.69970703 254.90771484 C683.10781697 298.30287738 683.10781697 298.30287738 681 316 C680.87455811 317.13864502 680.87455811 317.13864502 680.74658203 318.30029297 C677.7939798 342.97899501 666.56607272 363.46081901 647.1875 378.875 C625.4260969 394.25757418 602.68649432 394.63689572 577 394 C576.97938507 393.39169342 576.95877014 392.78338684 576.93753052 392.15664673 C576.36350535 375.2621984 575.76085006 358.36890944 575.12957764 341.47650146 C575.04896885 339.31380898 574.96898083 337.15109314 574.88995361 334.98834229 C573.69392477 302.25786776 571.11258869 269.64233981 568.34039307 237.01422119 C568.1131034 234.33821098 567.8874918 231.66206818 567.66351318 228.98577881 C567.02214165 221.32269279 566.3668951 213.66101549 565.68862915 206.00109863 C565.48116247 203.64376682 565.27746799 201.28609968 565.07772827 198.92810059 C564.80082552 195.67872738 564.50814769 192.43116388 564.2109375 189.18359375 C564.13292404 188.23348923 564.05491058 187.2833847 563.97453308 186.30448914 C563.49471226 181.27444575 562.78334716 177.35835498 560 173 C556.87057535 171.43528767 553.38917777 171.30298042 550 172 C547.29282484 174.1322831 546.11516831 175.27493997 545.56694031 178.72639465 C545.60245499 179.75616928 545.63796967 180.78594391 545.67456055 181.84692383 C545.72947159 183.58288315 545.72947159 183.58288315 545.78549194 185.35391235 C546.14117602 191.39963083 546.62698004 197.42098109 547.20703125 203.44921875 C547.33406262 204.81765672 547.46046548 206.18615315 547.58628845 207.55470276 C547.85238627 210.44083768 548.1215535 213.32666131 548.39318848 216.21228027 C549.10474597 223.78436225 549.78795678 231.35904455 550.47265625 238.93359375 C550.54044659 239.68219288 550.60823692 240.43079201 550.67808151 241.20207596 C555.29025456 292.18174078 557 342.67412555 557 394 C361.31 394 165.62 394 -36 394 C-36 375.25539822 -36 375.25539822 -35.88671875 368.921875 C-35.86593262 367.73758659 -35.86593262 367.73758659 -35.84472656 366.52937317 C-34.87147616 314.33031082 -31.58001055 262.24338474 -27.078125 210.23828125 C-26.97123352 209.00252602 -26.97123352 209.00252602 -26.86218262 207.74180603 C-26.53757637 204.00536439 -26.20714577 200.26963217 -25.86328125 196.53491211 C-24.0427812 184.72781376 -24.0427812 184.72781376 -27.125 173.9375 C-30.52490293 171.64626107 -31.98259975 171.33043329 -36 172 C-38.90891595 172.62754723 -38.90891595 172.62754723 -41 175 C-43.02045774 182.25967371 -43.5056311 189.99308591 -44.1484375 197.4765625 C-44.24574158 198.56942062 -44.34304565 199.66227875 -44.44329834 200.78825378 C-44.7613452 204.39989929 -45.06953917 208.01226905 -45.375 211.625 C-45.48293884 212.89427338 -45.59087769 214.16354675 -45.7020874 215.47128296 C-50.72283043 274.91535088 -53.1413227 334.38700169 -55 394 C-60.26117662 394.10040413 -65.52177117 394.17217623 -70.78369141 394.21972656 C-72.56601703 394.2395907 -74.34827975 394.2666916 -76.13037109 394.30175781 C-100.79582536 394.77422285 -121.37081027 388.56564338 -139.6953125 371.32421875 C-145.87092009 365.0962755 -150.46023488 358.59959473 -154.4375 350.8125 C-154.95111084 349.81464478 -154.95111084 349.81464478 -155.47509766 348.79663086 C-155.94955322 347.82415405 -155.94955322 347.82415405 -156.43359375 346.83203125 C-156.71259521 346.26202393 -156.99159668 345.6920166 -157.27905273 345.10473633 C-159.33571904 339.10049651 -158.89917692 333.95729644 -157.39208984 327.9206543 C-157.20802361 327.14063553 -157.02395739 326.36061676 -156.83431339 325.55696106 C-156.22198214 322.97631284 -155.59166004 320.40042831 -154.9609375 317.82421875 C-154.52317474 315.99737584 -154.08643305 314.17028798 -153.65065002 312.3429718 C-152.48303092 307.46277769 -151.29904329 302.58670019 -150.11082077 297.71148682 C-149.12836709 293.67391802 -148.1542749 289.63434929 -147.17980862 285.59484673 C-111.36243991 137.18462272 -111.36243991 137.18462272 -83 84 C-82.63084473 83.29504395 -82.26168945 82.59008789 -81.88134766 81.86376953 C-66.0780694 51.78825828 -44.40352136 25.85247602 -16 7 C-15.33677734 6.5555957 -14.67355469 6.11119141 -13.99023438 5.65332031 C-3.65061956 -1.21687319 -3.65061956 -1.21687319 0 0 Z " fill="#FEFBF5" transform="translate(255,831)"/>
<path d="M0 0 C1.3310376 0.73053589 1.3310376 0.73053589 2.68896484 1.47583008 C3.64367676 2.00072021 4.59838867 2.52561035 5.58203125 3.06640625 C36.0429362 19.32341214 71.3737087 30.71300239 106.14453125 31.06640625 C106.90040527 31.07663818 107.6562793 31.08687012 108.43505859 31.09741211 C113.12578125 31.02057668 116.43502646 30.14805226 120.39453125 27.62890625 C122.95757628 23.78433871 122.98523648 22.20687175 122.39453125 17.62890625 C120.65800906 14.42219962 118.57588353 11.54491085 116.39453125 8.62890625 C115.40453125 7.14390625 115.40453125 7.14390625 114.39453125 5.62890625 C116.22105225 5.65247192 116.22105225 5.65247192 118.08447266 5.67651367 C142.87330026 5.96797305 166.30766606 5.95897113 190.53955078 0.26904297 C210.60726079 -4.41941581 226.74334993 -6.22779552 245.2109375 4.22265625 C247.36150389 5.6114899 249.384353 7.04563184 251.39453125 8.62890625 C252.22855469 9.24894531 253.06257813 9.86898438 253.921875 10.5078125 C272.66434842 26.58547928 278.34089702 61.5879737 280.39453125 84.62890625 C281.48102967 102.97140852 281.17558915 121.89681969 275.20703125 139.44140625 C272.52004953 147.5023514 271.44375595 157.08168966 274.95703125 165.06640625 C275.76499099 166.58965651 276.57832746 168.11005746 277.39453125 169.62890625 C278.64515703 172.29796879 279.83220236 174.99371835 281.01953125 177.69140625 C281.32060791 178.35261475 281.62168457 179.01382324 281.93188477 179.69506836 C282.22119873 180.34483643 282.5105127 180.99460449 282.80859375 181.6640625 C283.06592285 182.23519775 283.32325195 182.80633301 283.58837891 183.39477539 C286.04486629 190.20256341 286.68555829 196.33270051 286.703125 203.5078125 C286.72830387 205.41862259 286.75370159 207.32942981 286.77929688 209.24023438 C286.80785027 212.20612708 286.83190724 215.17196958 286.85083008 218.13793945 C286.36418652 239.50968951 286.36418652 239.50968951 294.39453125 258.62890625 C298.12674998 261.11705207 301.07378488 261.24733369 305.39453125 260.62890625 C314.84797952 256.57742842 318.85924687 244.78603327 322.89453125 236.00390625 C328.40617396 224.06914665 335.27935019 214.82262213 346.51953125 207.62890625 C354.05498059 204.95900346 363.69631207 205.35134436 370.89453125 208.69140625 C380.81826888 214.59956845 385.18771708 222.3988892 388.51171875 233.2890625 C389.721908 238.37761729 389.73739327 243.42008476 389.70703125 248.62890625 C389.7013916 249.643479 389.69575195 250.65805176 389.68994141 251.70336914 C389.30895652 275.54132942 381.48039152 296.74541658 364.39453125 313.62890625 C353.04273253 324.01240272 340.39416402 328.77319637 325.20410156 329.11254883 C320.56108728 329.28612474 317.24943927 329.99751252 313.39453125 332.62890625 C309.59767595 337.98456224 308.92484107 344.87268519 307.64453125 351.19140625 C297.33013134 399.50486034 271.23279008 441.72639813 229.64306641 469.18994141 C220.10012137 475.29701177 210.09099083 480.47389902 199.76953125 485.12890625 C199.04773682 485.45536133 198.32594238 485.78181641 197.58227539 486.11816406 C192.92144401 488.15162703 188.35667548 489.51381766 183.39453125 490.62890625 C182.07453125 487.65890625 180.75453125 484.68890625 179.39453125 481.62890625 C177.74453125 481.62890625 176.09453125 481.62890625 174.39453125 481.62890625 C173.13215394 484.15366087 173.29596721 485.94091091 173.33203125 488.75390625 C173.34105469 489.66398437 173.35007812 490.5740625 173.359375 491.51171875 C173.37097656 492.21039062 173.38257813 492.9090625 173.39453125 493.62890625 C166.696239 496.11183998 160.05722268 497.58718022 153.01953125 498.75390625 C152.0553125 498.92277344 151.09109375 499.09164063 150.09765625 499.265625 C125.98818552 503.37005232 99.96481643 503.79976021 76.39453125 496.62890625 C75.73453125 493.65890625 75.07453125 490.68890625 74.39453125 487.62890625 C72.08453125 487.29890625 69.77453125 486.96890625 67.39453125 486.62890625 C66.73453125 488.93890625 66.07453125 491.24890625 65.39453125 493.62890625 C30.70882251 485.26250414 0.12797284 460.91813567 -20.60546875 432.62890625 C-19.61546875 431.96890625 -18.62546875 431.30890625 -17.60546875 430.62890625 C-14.81411296 428.50442147 -14.81411296 428.50442147 -12.60546875 425.62890625 C-12.10421592 421.96032903 -12.10421592 421.96032903 -12.60546875 418.62890625 C-12.93546875 418.29890625 -13.26546875 417.96890625 -13.60546875 417.62890625 C-17.01683351 417.56731205 -17.01683351 417.56731205 -20.60546875 418.62890625 C-23.08194952 421.54934328 -23.08194952 421.54934328 -24.60546875 424.62890625 C-26.77504896 422.59827232 -28.31880795 420.65568044 -29.76953125 418.06640625 C-30.16527344 417.36088623 -30.56101562 416.65536621 -30.96875 415.9284668 C-31.59330078 414.79018433 -31.59330078 414.79018433 -32.23046875 413.62890625 C-32.66488281 412.84233643 -33.09929687 412.0557666 -33.546875 411.24536133 C-48.60546875 383.62429942 -48.60546875 383.62429942 -48.60546875 375.62890625 C-47.94546875 374.98953125 -47.28546875 374.35015625 -46.60546875 373.69140625 C-44.36552919 371.78565052 -44.36552919 371.78565052 -44.23046875 369.00390625 C-44.39562624 366.44663429 -44.39562624 366.44663429 -46.60546875 364.62890625 C-50.18890851 364.46213343 -50.18890851 364.46213343 -53.60546875 364.62890625 C-66.5032747 317.48245038 -72.41641682 271.67834274 -73.26464844 222.76977539 C-73.42439318 213.71153784 -73.67787262 204.67408979 -74.12109375 195.625 C-74.7755145 181.79642932 -74.8046928 167.9706633 -74.79296875 154.12890625 C-74.79270187 153.47123764 -74.792435 152.81356903 -74.79216003 152.13597107 C-74.74045385 50.44687986 -74.74045385 50.44687986 -43.16894531 18.17089844 C-32.85556353 7.99923708 -14.66821915 -8.24427097 0 0 Z " fill="#FCF9F3" transform="translate(382.60546875,328.37109375)"/>
<path d="M0 0 C1.42047111 0.00056562 2.8409428 0.00024463 4.26141357 -0.00088501 C8.07881563 -0.00145366 11.89608937 0.01022068 15.71346188 0.02426291 C19.71727264 0.0368525 23.72108705 0.0379472 27.72491455 0.04031372 C35.28939358 0.04650449 42.8538141 0.06288243 50.41826749 0.0830127 C59.03747872 0.10544695 67.6566929 0.11638397 76.27592611 0.12640357 C93.99029889 0.14725106 111.70461738 0.18237979 129.41894531 0.22705078 C129.73649742 2.95370968 130.01112715 5.67386951 130.26269531 8.40673828 C130.35647461 9.1746167 130.45025391 9.94249512 130.546875 10.73364258 C130.7379452 13.01546169 130.80906543 14.96861235 130.41894531 17.22705078 C126.97971858 21.28522549 122.98733174 23.57590748 118.41894531 26.22705078 C97.24516265 43.14988281 89.70088968 74.04753979 86.70404053 99.61882019 C85.73517989 108.4825675 85.26065341 117.26898996 85.25097656 126.18408203 C85.24764816 127.28894455 85.24431976 128.39380707 85.2408905 129.53215027 C85.23586121 131.85907582 85.23348093 134.18600848 85.23364258 136.51293945 C85.23147454 139.99264102 85.21332613 143.47201521 85.19433594 146.95166016 C85.13541415 170.31404394 85.99640032 194.92917166 91.74707031 217.69970703 C94.98828759 230.67762644 94.98828759 230.67762644 93.32519531 235.20361328 C91.54394531 237.60205078 91.54394531 237.60205078 89.50488281 239.81689453 C75.0472145 256.52172852 76.43942056 283.59030592 77.41894531 304.22705078 C78.06146797 310.75048406 79.46965359 316.97715273 81.41894531 323.22705078 C81.63325195 323.91750488 81.84755859 324.60795898 82.06835938 325.31933594 C87.82487003 343.19635992 97.68611186 364.28394092 114.41894531 374.22705078 C115.59199219 374.53255859 116.76503906 374.83806641 117.97363281 375.15283203 C120.66863598 376.26770658 121.30761437 376.98382135 122.54223633 379.68115234 C123.46323444 382.86638891 124.19098398 386.04142082 124.85644531 389.28955078 C125.11103516 390.40394531 125.365625 391.51833984 125.62792969 392.66650391 C127.41894531 400.62710974 127.41894531 400.62710974 127.41894531 403.22705078 C126.42636719 403.68853516 125.43378906 404.15001953 124.41113281 404.62548828 C97.06445259 417.63464632 74.79048088 438.25610493 64.41894531 467.22705078 C61.02142911 476.86922294 60.05235884 485.77983712 59.98144531 495.97705078 C59.97129395 497.00612549 59.96114258 498.0352002 59.95068359 499.09545898 C60.03491281 506.51415524 61.40289076 513.11038446 63.41894531 520.22705078 C63.82080898 521.80886432 64.21750703 523.39200962 64.60644531 524.97705078 C64.87457031 526.04955078 65.14269531 527.12205078 65.41894531 528.22705078 C63.96488281 529.10103516 63.96488281 529.10103516 62.48144531 529.99267578 C47.59727947 539.04877215 33.95942805 549.11714256 21.41894531 561.22705078 C20.56945312 562.02498047 19.71996094 562.82291016 18.84472656 563.64501953 C12.48236901 569.76766502 7.04242306 576.41811719 1.74951172 583.4609375 C0.51191403 585.10364974 -0.74665421 586.73050523 -2.00683594 588.35595703 C-43.37314703 643.53360604 -60.01282529 718.79862015 -76.51855469 784.53955078 C-76.85983398 785.89486404 -76.85983398 785.89486404 -77.20800781 787.27755737 C-80.28683911 799.53916573 -83.06270989 811.83820569 -85.58105469 824.22705078 C-85.91105469 824.22705078 -86.24105469 824.22705078 -86.58105469 824.22705078 C-86.63247409 752.63596104 -86.68017242 681.04486909 -86.70808411 609.45376587 C-86.70870536 607.86436651 -86.70870536 607.86436651 -86.70933917 606.24285808 C-86.71831793 583.2148109 -86.72662847 560.18676353 -86.73425068 537.15871587 C-86.73799268 525.86573892 -86.74188234 514.57276203 -86.74584961 503.27978516 C-86.74624189 502.15599924 -86.74663416 501.03221331 -86.74703833 499.87437327 C-86.75982197 463.45036022 -86.78235562 427.02636112 -86.80994635 390.60235652 C-86.83824831 353.17143096 -86.85671199 315.74051313 -86.86279966 278.30957705 C-86.86366412 273.02251246 -86.86464103 267.73544789 -86.86568642 262.44838333 C-86.86588869 261.40781494 -86.86609095 260.36724655 -86.86629935 259.29514579 C-86.86984427 242.5460258 -86.88375782 225.7969297 -86.90155079 209.04781945 C-86.91921813 192.20861381 -86.92595721 175.36943186 -86.92155882 158.53021728 C-86.91927741 148.52620744 -86.92535747 138.52228431 -86.94344732 128.51829013 C-86.95471152 121.83203408 -86.95503543 115.1458347 -86.94655013 108.45957471 C-86.94202885 104.65212216 -86.9421821 100.84483337 -86.95570423 97.0373985 C-86.97018732 92.92801206 -86.96124658 88.81899751 -86.95019817 84.70960045 C-86.95807921 83.53830652 -86.96596026 82.3670126 -86.97408012 81.16022491 C-86.83636931 58.47031614 -78.02927074 38.09047762 -62.30371094 21.87939453 C-44.4798175 5.03769296 -23.95665591 -0.13216699 0 0 Z " fill="#FEFCF6" transform="translate(176.5810546875,283.77294921875)"/>
<path d="M0 0 C19.42886935 -0.07028928 38.85771266 -0.12308531 58.28668308 -0.15543652 C67.30924815 -0.17086147 76.33173391 -0.19186669 85.35424805 -0.22631836 C93.22439806 -0.25635533 101.0944906 -0.27560672 108.96469635 -0.28226548 C113.12635829 -0.28615369 117.28785588 -0.29519869 121.4494648 -0.31719017 C125.37862575 -0.33778211 129.30755702 -0.34378875 133.23676682 -0.33932304 C134.66726753 -0.34013822 136.09777715 -0.3459672 137.52823067 -0.35761642 C161.23316094 -0.54094638 181.89974718 6.22859819 199 23 C199.763125 23.72703125 200.52625 24.4540625 201.3125 25.203125 C215.84296441 40.03630742 222.15791626 60.05996479 222.1386652 80.42056847 C222.14150742 81.58233913 222.14434964 82.7441098 222.14727798 83.94108564 C222.15417513 87.17140386 222.15661951 90.40169043 222.1572054 93.63201484 C222.15893515 97.14416185 222.16642092 100.65629732 222.17318195 104.1684376 C222.18423961 110.32562872 222.19161098 116.48281573 222.19658089 122.64001465 C222.20398761 131.79556462 222.21707093 140.95110031 222.23132664 150.10664186 C222.255145 165.50722114 222.27434589 180.90780294 222.29092598 196.30839157 C222.30736021 211.55951663 222.32584011 226.81063695 222.34705925 242.06175613 C222.34837686 243.00960489 222.34969446 243.95745365 222.351052 244.9340251 C222.35775397 249.74756211 222.36449257 254.56109907 222.37124526 259.37463601 C222.41902339 293.47940769 222.46220409 327.58418379 222.50268555 361.68896484 C222.54202614 394.82373375 222.58344641 427.95849898 222.62768555 461.09326172 C222.62904808 462.11440681 222.63041061 463.13555189 222.63181442 464.18764077 C222.64549966 474.44228865 222.65922721 484.69693647 222.67298577 494.95158426 C222.7010132 515.84195957 222.72875818 536.73233526 222.7563324 557.62271118 C222.7576006 558.58324187 222.7588688 559.54377255 222.76017542 560.53341022 C222.84484827 624.68893419 222.92293649 688.8444665 223 753 C221.1772973 749.49818661 220.10800246 746.108667 219.07421875 742.2890625 C218.69349433 740.90410298 218.31202936 739.51934689 217.92993164 738.13476562 C217.7285257 737.40169189 217.52711975 736.66861816 217.3196106 735.91333008 C198.10074641 666.33831382 168.69615192 577.71004767 101.96020508 539.85083008 C95.07230685 536.05078419 88.09982729 532.38936478 81 529 C82.71481505 523.7126536 84.72191893 518.57494708 86.78125 513.4140625 C92.42516177 497.60387376 91.71215771 479.6991001 86 464 C85.62617187 462.94683594 85.25234375 461.89367187 84.8671875 460.80859375 C74.63290513 434.27401398 52.77706612 415.89971336 27.53759766 404.34643555 C21.15830224 401.53284126 14.60976447 399.21004451 8 397 C11.00354385 395.36101034 14.09633322 394.25300188 17.32910156 393.1496582 C41.3112261 384.80170387 58.30980533 367.64017669 69.30249023 345.02587891 C81.07835503 319.75070401 84.9984389 288.12369195 75.78125 261.4765625 C69.61336363 245.67992019 59.28917522 234.68205821 45 226 C45.29003906 224.32550781 45.29003906 224.32550781 45.5859375 222.6171875 C55.41184651 164.39472727 53.35861582 96.0736956 18.0625 46.125 C10.41959997 35.73468099 10.41959997 35.73468099 1.3671875 26.68823242 C-0.62613315 24.22683737 -0.3406254 22.36773458 -0.29296875 19.23828125 C-0.28330078 18.12001953 -0.27363281 17.00175781 -0.26367188 15.84960938 C-0.23853516 14.68236328 -0.21339844 13.51511719 -0.1875 12.3125 C-0.17396484 11.13365234 -0.16042969 9.95480469 -0.14648438 8.74023438 C-0.11109326 5.82636589 -0.06171809 2.91341055 0 0 Z " fill="#FEFBF6" transform="translate(713,284)"/>
<path d="M0 0 C6.11164658 1.10171701 11.94435855 2.40772871 17.75 4.625 C18.42683838 4.88224854 19.10367676 5.13949707 19.80102539 5.40454102 C40.36827704 13.51871155 59.70732474 28.33557419 68.85693359 48.92871094 C70.44945197 52.88757001 71.79120211 56.9095143 73 61 C73.19980469 61.6290625 73.39960937 62.258125 73.60546875 62.90625 C76.84858091 80.11722145 71.24360914 96.63159729 62 111 C58.60655252 115.88895505 54.82427988 120.44618105 51 125 C50.06337798 126.14157925 49.12717943 127.28350608 48.19140625 128.42578125 C37.36710953 141.48530913 25.44882144 153.64263532 12 164 C10.60201172 165.14082031 10.60201172 165.14082031 9.17578125 166.3046875 C-13.64385095 184.59545543 -40.78229089 198.53944155 -68 209 C-68.83740723 209.32661621 -69.67481445 209.65323242 -70.53759766 209.98974609 C-85.09806334 215.63014118 -99.91309804 220.00206563 -115 224 C-115.58007812 223.22269531 -116.16015625 222.44539062 -116.7578125 221.64453125 C-120.39393821 217.35593002 -124.60390322 215.38337548 -130.125 214.5 C-134.71063654 215.29750201 -137.6813703 217.20638003 -140.453125 220.9765625 C-142.10730506 223.59092754 -143.6166829 226.2333658 -145 229 C-148.51376559 230.1712552 -151.83391099 230.36478291 -155.5 230.5625 C-156.26231934 230.6049585 -157.02463867 230.64741699 -157.81005859 230.69116211 C-169.52821519 231.26112921 -181.27199213 231.08487202 -193 231 C-189.81838862 228.42008111 -186.53992293 226.69785569 -182.83984375 224.953125 C-181.92565422 224.52126137 -181.92565422 224.52126137 -180.99299622 224.08067322 C-178.97708991 223.13147655 -176.95757425 222.19029069 -174.9375 221.25 C-174.23959351 220.92319244 -173.54168701 220.59638489 -172.82263184 220.25967407 C-161.56522408 214.99322298 -150.19395751 210.03277973 -138.75 205.1875 C-110.33162902 193.13180536 -84.63888543 179.34635391 -62 158 C-61.33742188 157.39027344 -60.67484375 156.78054688 -59.9921875 156.15234375 C-41.50885345 138.52956978 -28.3976101 114.91678245 -20 91 C-19.7824707 90.38125 -19.56494141 89.7625 -19.34082031 89.125 C-15.0491817 76.45135616 -13.40156151 63.28284751 -11.48916626 50.09693909 C-8.99205125 32.89353785 -5.28638125 16.5639946 0 0 Z " fill="#FDF9F3" transform="translate(708,700)"/>
<path d="M0 0 C0.86762314 2.24561282 1.7192103 4.49526255 2.5625 6.75 C2.9327832 7.70132813 2.9327832 7.70132813 3.31054688 8.671875 C4.25568223 11.227734 5.02149466 13.45090926 4.9140625 16.1953125 C3.63865335 18.71342799 1.89884309 20.23086607 -0.1875 22.125 C-8.70525713 30.39900573 -13.89393253 40.27398112 -14.4375 52.25 C-13.6631377 73.42583069 0.04549175 88.84551521 14.72363281 102.6171875 C37.72286372 123.5569841 63.8424702 139.7092014 91.375 153.9375 C107.64855696 162.36142665 123.53896754 171.16565661 138.8125 181.3125 C139.78437256 181.95799805 140.75624512 182.60349609 141.75756836 183.26855469 C150.53810764 189.19763869 158.70138636 195.81051999 166.75 202.6875 C167.80710062 203.58746404 168.86439132 204.48720485 169.921875 205.38671875 C170.42525391 205.8151709 170.92863281 206.24362305 171.44726562 206.68505859 C173.95167529 208.80593131 176.47577086 210.9027737 179 213 C175.79626087 216.71633739 172.64656363 218.45114546 168 220 C165.375 219.8125 165.375 219.8125 163 219 C162.154375 218.79375 161.30875 218.5875 160.4375 218.375 C157.4712153 216.70171119 156.56763383 214.71051489 155.01953125 211.75 C152.70053492 207.76950056 149.90657904 206.24724883 145.5625 205.0625 C141.45653092 204.99046545 139.59959777 206.16190752 136 208 C131.51850608 207.61764259 128.00541364 206.27275445 123.9765625 204.33203125 C122.22255127 203.4975647 122.22255127 203.4975647 120.43310547 202.64624023 C119.81417419 202.34805389 119.19524292 202.04986755 118.55755615 201.74264526 C115.20837503 200.13067401 111.84669312 198.54528399 108.484375 196.9609375 C107.78613617 196.63163742 107.08789734 196.30233734 106.36849976 195.96305847 C98.93475445 192.47301743 91.41113451 189.19885726 83.875 185.9375 C21.50169577 158.8709436 21.50169577 158.8709436 -4 142 C-4.6172998 141.59217285 -5.23459961 141.1843457 -5.87060547 140.76416016 C-26.35508601 127.05450916 -46.31937013 110.32861841 -52.9375 85.625 C-56.53237739 67.11138145 -52.58868646 50.13801422 -43 34 C-35.02834415 22.34911838 -15.75781006 0 0 0 Z " fill="#FCF8F3" transform="translate(311,707)"/>
<path d="M0 0 C4.29494989 3.59847153 5.11499203 7.55494421 5.875 12.875 C5.14725647 30.76536175 -8.00655711 50.15354474 -20.6875 61.9375 C-43.43496992 81.19289061 -71.09165211 83.59922614 -99.6875 81.9375 C-119.88669454 79.51708206 -137.90793629 68.52100652 -151 53.1875 C-160.18273882 40.87913549 -167.73949056 25.67910422 -166.6875 9.9375 C-164.75 7 -164.75 7 -161.6875 4.9375 C-154.1934673 4.45450091 -147.06814988 5.65194506 -139.6875 6.875 C-137.43778827 7.24006217 -135.18779228 7.60337741 -132.9375 7.96484375 C-131.95265625 8.12718506 -130.9678125 8.28952637 -129.953125 8.45678711 C-122.70535288 9.52368778 -115.61574759 10.09543568 -108.2890625 10.10546875 C-107.41462494 10.10879715 -106.54018738 10.11212555 -105.63925171 10.11555481 C-103.79547648 10.12058763 -101.95169225 10.12296427 -100.10791016 10.12280273 C-97.35432954 10.12496712 -94.60116508 10.14310093 -91.84765625 10.16210938 C-76.03662486 10.21310841 -60.5814769 8.82379857 -45 6.125 C-44.01596191 5.9590332 -43.03192383 5.79306641 -42.01806641 5.62207031 C-33.47383159 4.14776036 -24.99164867 2.3954823 -16.52856445 0.51245117 C-5.04424841 -1.99423774 -5.04424841 -1.99423774 0 0 Z " fill="#010101" transform="translate(559.6875,648.0625)"/>
<path d="M0 0 C1 2 1 2 0.62963867 3.74560547 C-15.265195 51.13020396 -45.79006171 84.33749335 -90.34765625 106.70703125 C-104.12691609 113.50087569 -118.1720593 119.6184779 -132.3293457 125.57275391 C-133.74050676 126.16803447 -135.15155924 126.76357247 -136.5625 127.359375 C-137.5940345 127.79308914 -137.5940345 127.79308914 -138.64640808 128.23556519 C-142.3800744 129.82254459 -146.05622567 131.4895271 -149.703125 133.26757812 C-150.47454834 133.64223206 -151.24597168 134.01688599 -152.04077148 134.40289307 C-153.52219609 135.12852047 -154.9985988 135.86451941 -156.46899414 136.61224365 C-161.47744618 139.06848033 -161.47744618 139.06848033 -164.06835938 138.72894287 C-167.14253532 137.56884165 -169.00789114 135.11473648 -171.1875 132.75 C-183.40267482 120.0529756 -198.39580715 110.29446258 -213.25 100.95703125 C-224.26554971 93.91775777 -233.07222292 85.1463676 -240 74 C-240 73.34 -240 72.68 -240 72 C-238.31206742 72.4149108 -236.62469298 72.83209186 -234.9375 73.25 C-233.83277344 73.52328125 -232.72804688 73.7965625 -231.58984375 74.078125 C-229.24023748 74.68150593 -226.89831155 75.31584242 -224.56640625 75.984375 C-169.80731726 91.57842006 -109.30331921 79.41370271 -60.15234375 52.40234375 C-36.95336753 39.23653113 -16.11716549 21.16296502 0 0 Z " fill="#FBF8F2" transform="translate(673,771)"/>
<path d="M0 0 C1.70635117 -0.00143509 1.70635117 -0.00143509 3.44717407 -0.00289917 C5.84238745 -0.00357662 8.2376027 -0.00175279 10.6328125 0.00244141 C14.27087595 0.00778578 17.9088154 0.00248666 21.546875 -0.00390625 C23.88541694 -0.0032452 26.2239588 -0.00196348 28.5625 0 C29.63680267 -0.00202423 30.71110535 -0.00404846 31.81796265 -0.00613403 C51.68360842 0.05458989 65.75495145 4.43490911 80.1796875 18.3125 C84.79069836 23.29161677 87.97046475 27.80507984 87.8515625 34.8203125 C86.82330789 38.45347878 85.88444381 39.86134444 82.9140625 42.1328125 C74.39287632 44.97320789 65.17544896 42.60811391 56.6640625 40.7578125 C41.19899363 37.63156872 26.06931146 36.23096306 10.30859375 35.90234375 C9.46100494 35.88390411 8.61341614 35.86546448 7.74014282 35.84646606 C3.47997658 35.75675455 -0.77908353 35.68650229 -5.04003906 35.64941406 C-6.62695757 35.62463171 -8.21387186 35.59957816 -9.80078125 35.57421875 C-10.87612373 35.57419609 -10.87612373 35.57419609 -11.97319031 35.57417297 C-18.30725991 35.45022867 -23.42301158 33.73056805 -28.8984375 30.4453125 C-32.394708 26.74925511 -33.9678231 22.92503681 -34.18359375 17.82421875 C-33.82638875 12.65781477 -32.63853718 9.04978137 -29.0859375 5.1328125 C-20.58095786 -0.87070254 -9.97633713 -0.01872712 0 0 Z " fill="#010101" transform="translate(534.0859375,454.8671875)"/>
<path d="M0 0 C1.26600037 -0.00428513 2.53200073 -0.00857025 3.83636475 -0.01298523 C6.50579867 -0.01870812 9.1748434 -0.02018907 11.84423828 -0.01489258 C15.22722024 -0.00911767 18.60965115 -0.02600159 21.99254227 -0.04923725 C25.26585592 -0.06771441 28.53914375 -0.06378504 31.8125 -0.0625 C33.00772278 -0.07170975 34.20294556 -0.08091949 35.43438721 -0.09040833 C44.15482366 -0.04322444 55.06949683 0.07103268 62.296875 5.61328125 C66.37426574 10.22717077 68.25771038 13.98913751 67.9453125 20.28515625 C67.37761539 24.46989495 66.21519381 27.69368894 63.25390625 30.77734375 C53.65251017 38.02607986 37.7427024 36.4892561 26.19061279 36.53695679 C10.42130151 36.63576856 -4.64670829 38.3750606 -20.11987305 41.39355469 C-35.2687491 44.27819876 -35.2687491 44.27819876 -42.328125 41.30078125 C-45.79085912 38.00293923 -46.59497545 35.12493151 -46.890625 30.48828125 C-46.45973562 21.49346535 -41.09289633 15.30642217 -34.78515625 9.3125 C-24.49128966 0.88429444 -12.8103103 -0.00970267 0 0 Z " fill="#020202" transform="translate(360.328125,454.69921875)"/>
<path d="M0 0 C2.5625 2 2.5625 2 4 5 C3.57076101 10.95579172 2.20507084 16.48735449 0.6015625 22.22265625 C0.24812271 23.51737099 0.24812271 23.51737099 -0.11245728 24.83824158 C-0.86144613 27.58111674 -1.61736545 30.32200132 -2.375 33.0625 C-12.43033347 63.16275222 -12.43033347 63.16275222 -8 93 C-0.79630988 100.60709676 7.9554348 100.01586903 17.77148438 100.296875 C19.81816278 100.34945505 21.86507426 100.39357094 23.91210938 100.4296875 C24.89630859 100.460625 25.88050781 100.4915625 26.89453125 100.5234375 C28.22254761 100.5531665 28.22254761 100.5531665 29.57739258 100.58349609 C32.4848796 101.08336235 33.8713947 101.98103655 36 104 C37.15365493 107.53787511 37.29067884 109.28945173 35.875 112.75 C33.18584552 115.97698538 30.47111278 116.84878923 26.32788086 117.2746582 C23.19735476 117.30322188 20.06817544 117.32170246 16.9375 117.3125 C15.86822266 117.32861328 14.79894531 117.34472656 13.69726562 117.36132812 C1.93389182 117.3684359 -9.11324954 115.46251532 -17.90234375 107.21484375 C-25.76908209 98.84915794 -28.18169751 89.98849492 -28.25 78.8125 C-28.270625 78.01908203 -28.29125 77.22566406 -28.3125 76.40820312 C-28.40897765 60.8873609 -23.81803227 45.62419057 -19.81152344 30.76611328 C-18.99070254 27.715445 -18.18619831 24.66076934 -17.3828125 21.60546875 C-16.86033594 19.64818073 -16.33693299 17.69113972 -15.8125 15.734375 C-15.57490967 14.82919128 -15.33731934 13.92400757 -15.0925293 12.99139404 C-13.89548401 8.59647096 -12.75488656 4.71464152 -10 1 C-6.77881785 -0.61059107 -3.48357658 -0.59090254 0 0 Z " fill="#020202" transform="translate(442,521)"/>
<path d="M0 0 C6.05421724 4.12202025 9.6511628 9.91732528 11.46484375 16.9765625 C13.31535734 28.81373208 13.0208348 41.85273737 6.51171875 52.28515625 C3.80970342 55.68536675 1.28111369 58.04652382 -3.0625 59 C-7.22701632 59.45431087 -9.4489592 59.31904121 -13.1875 57.375 C-20.3341183 51.47127184 -23.24487143 45.62986041 -24.3815918 36.41259766 C-24.53376501 33.8085242 -24.58157797 31.23336939 -24.5625 28.625 C-24.55677979 27.71032959 -24.55105957 26.79565918 -24.54516602 25.85327148 C-24.32759253 17.58474635 -22.9458689 10.30003939 -17.2421875 3.984375 C-11.81266129 -0.87720914 -7.26679518 -2.37283108 0 0 Z " fill="#010101" transform="translate(565.0625,513)"/>
<path d="M0 0 C6.45535037 3.52510601 9.85204875 9.13141013 12 16 C14.60922296 26.59449593 14.14141264 39.81923131 8.60546875 49.41796875 C5.14330261 54.22994143 2.07467622 57.48983372 -3.8125 58.9375 C-8.464378 59.36197304 -11.41723754 57.86804258 -15 55 C-22.00887654 47.99112346 -24.08187093 38.53895233 -24.3125 28.9375 C-24.21489676 19.44829573 -22.16204147 10.35327821 -15.5625 3.26953125 C-10.85597499 -0.55452032 -5.86868331 -1.12791511 0 0 Z " fill="#030302" transform="translate(386,513)"/>
<path d="M0 0 C-11.80446931 15.41139049 -29.6426935 23.02651043 -48.375 26.25 C-66.76870431 28.50312636 -88.66117293 29.18180365 -105 19 C-108.00956016 16.17479635 -110.52838292 12.87971776 -112 9 C-112 8.01 -112 7.02 -112 6 C-111.30519531 6.06928711 -110.61039062 6.13857422 -109.89453125 6.20996094 C-99.26693325 7.15620778 -88.66354944 7.24229193 -78 7.25 C-77.0304538 7.25100708 -76.06090759 7.25201416 -75.0619812 7.25305176 C-52.68391366 7.23739745 -30.99756089 5.41892129 -9.0625 0.76953125 C-5.98984881 0.13614611 -3.15189378 -0.18428411 0 0 Z " fill="#FAF7F2" transform="translate(539,666)"/>
<path d="M0 0 C2.46943118 2.14017369 2.81641844 3.1856383 3.25 6.4375 C2.875 9.625 2.875 9.625 1 12.4375 C-2.78241697 15.08519188 -5.20677272 15.08302943 -9.69921875 15.3359375 C-15.82245505 16.06559851 -20.1633172 21.28601408 -24.125 25.625 C-24.125 26.285 -24.125 26.945 -24.125 27.625 C-23.238125 28.24375 -22.35125 28.8625 -21.4375 29.5 C-15.77875277 34.11033326 -13.48765646 41.16667812 -12.74609375 48.23828125 C-12.62862957 55.52889109 -12.56176208 62.96323155 -16.875 69.125 C-19.125 70.625 -19.125 70.625 -22.0625 71.25 C-25.53328164 70.54167722 -26.91862683 69.37584148 -29.09741211 66.62158203 C-31.17206636 62.59057171 -30.63215555 58.17017837 -30.4375 53.75 C-30.40366211 52.28820312 -30.40366211 52.28820312 -30.36914062 50.796875 C-30.31050753 48.40464485 -30.22851153 46.0156385 -30.125 43.625 C-31.06214844 44.1096875 -31.99929688 44.594375 -32.96484375 45.09375 C-36.18588016 46.65449941 -37.64479038 47.33888915 -41.125 46.625 C-44.92148338 44.00964478 -45.97397148 42.33367229 -46.9375 37.8125 C-46.2381512 26.19553944 -37.44633583 14.06891607 -29.125 6.625 C-20.76753366 0.01097863 -10.49394686 -4.61733662 0 0 Z " fill="#020202" transform="translate(751.125,562.375)"/>
<path d="M0 0 C0.24622145 19.06848367 -0.48154539 38.06755041 -1.27148056 57.11410904 C-1.44658585 61.36133348 -1.61635519 65.6087707 -1.78637695 69.85620117 C-1.99216411 74.99112153 -2.19823838 80.12602871 -2.4065094 85.260849 C-3.02883433 100.61035712 -3.61414072 115.96108364 -4.1875 131.3125 C-4.27192366 133.5626646 -4.35639458 135.81282743 -4.44091797 138.06298828 C-4.62784689 143.04197108 -4.81415827 148.02097651 -5 153 C-7.31 152.67 -9.62 152.34 -12 152 C-12.54313222 122.44232663 -11.10763969 92.96213868 -9.77308941 63.44138741 C-9.46474906 56.6139746 -9.16522164 49.78618246 -8.86621189 42.95835567 C-8.25351537 28.97181428 -7.6304501 14.98575163 -7 1 C-4 0 -4 0 0 0 Z " fill="#F4F2EE" transform="translate(582,934)"/>
<path d="M0 0 C6.07155508 2.25122792 11.45649396 2.46080908 17.875 2.2734375 C18.92534424 2.26086914 19.97568848 2.24830078 21.05786133 2.23535156 C26.46119087 2.14643548 31.76061648 1.84478879 37.125 1.2109375 C40.82207852 0.83035589 41.67964655 0.8294828 45.125 2.5859375 C47.16018382 5.25273009 47.9375 6.6022517 47.9375 9.9609375 C46.2422359 13.79758783 44.73402712 15.34854416 40.9375 16.9609375 C27.26607167 20.72308839 10.30759635 22.02832096 -3.0625 16.9609375 C-4.13242187 16.58453125 -5.20234375 16.208125 -6.3046875 15.8203125 C-11.94028172 13.68500342 -15.69248433 12.17492402 -19.0625 6.9609375 C-19.0625 3.22427787 -18.82240994 0.97415075 -16.5625 -2.0390625 C-10.90977424 -4.30015281 -5.377641 -2.24642044 0 0 Z " fill="#030303" transform="translate(459.0625,747.0390625)"/>
<path d="M0 0 C0.598125 0.20625 1.19625 0.4125 1.8125 0.625 C1.83589336 18.07137536 1.85351076 35.51774579 1.86431217 52.96413326 C1.86946147 61.06536827 1.87647807 69.16659352 1.88793945 77.26782227 C1.8979281 84.33146645 1.90436337 91.39510355 1.90658849 98.4587546 C1.90788851 102.19650528 1.91092931 105.93423573 1.91823006 109.6719799 C1.92632708 113.85156006 1.92648845 118.03110538 1.92602539 122.21069336 C1.92962067 123.44068558 1.93321594 124.6706778 1.93692017 125.9379425 C1.92935868 132.2541917 1.65537724 138.36357776 0.8125 144.625 C-1.4975 144.955 -3.8075 145.285 -6.1875 145.625 C-6.12703791 126.88417259 -6.04958968 108.14348934 -5.95178509 89.40281868 C-5.90677344 80.70166355 -5.86737131 72.00054985 -5.84106445 63.29931641 C-5.81812769 55.71744048 -5.7847785 48.13569505 -5.73879844 40.55392253 C-5.71480756 36.53748615 -5.69611739 32.52117947 -5.68988609 28.504673 C-5.68386154 24.72730481 -5.66395821 20.95026874 -5.63322449 17.17302322 C-5.62440178 15.78386232 -5.62073038 14.39465808 -5.62249184 13.00547028 C-5.62413318 11.11437756 -5.60575129 9.22329855 -5.58622742 7.33230591 C-5.58161845 6.27224398 -5.57700949 5.21218204 -5.57226086 4.11999702 C-5.44528977 3.29664801 -5.31831869 2.47329899 -5.1875 1.625 C-2.1875 -0.375 -2.1875 -0.375 0 0 Z " fill="#FAF8F4" transform="translate(455.1875,932.375)"/>
<path d="M0 0 C2.9106786 2.9106786 2.62899075 6.15572293 2.96484375 10.08203125 C3.04277664 10.91185516 3.12070953 11.74167908 3.20100403 12.59664917 C3.45553109 15.33452118 3.6968089 18.07337963 3.9375 20.8125 C4.10981547 22.70488288 4.28267229 24.59721653 4.45605469 26.48950195 C4.98644421 32.32499008 5.49621768 38.16216109 6 44 C6.07945862 44.91841675 6.15891724 45.8368335 6.24078369 46.78308105 C6.75559387 52.75026606 7.25794792 58.71839711 7.75 64.6875 C7.81484589 65.4683194 7.87969177 66.24913879 7.94650269 67.05361938 C8.12920506 69.26855915 8.30762131 71.48379719 8.484375 73.69921875 C8.58459961 74.94533936 8.68482422 76.19145996 8.78808594 77.4753418 C8.99957758 80.99297405 9.03730189 84.47694918 9 88 C1.9970929 79.70990647 -1.99116986 70.03840961 -4.875 59.6875 C-5.07794678 58.95958252 -5.28089355 58.23166504 -5.48999023 57.48168945 C-10.0272588 40.14669493 -10.68912747 18.58907854 -1.75 2.5625 C-1.1725 1.716875 -0.595 0.87125 0 0 Z " fill="#F7F4F0" transform="translate(283,540)"/>
<path d="M0 0 C3.41142904 0.46496514 4.48390725 1.62873535 6.82421875 4.109375 C7.49839844 4.80546875 8.17257812 5.5015625 8.8671875 6.21875 C12.81353207 10.99269443 12.9334767 14.32529667 12.63671875 20.359375 C11.63671875 21.359375 11.63671875 21.359375 8.57421875 21.609375 C4.40234665 20.97020619 2.7354938 18.48816921 0.26171875 15.234375 C-2.67960867 10.85088511 -4.58927902 7.67032262 -4.36328125 2.359375 C-2.36328125 0.359375 -2.36328125 0.359375 0 0 Z " fill="#050504" transform="translate(559.36328125,727.640625)"/>
<path d="M0 0 C3.22441258 1.40551318 3.97174443 2.91112553 5.4375 6.0625 C6.38126116 9.141114 6.60100908 11.97271607 6.625 15.1875 C6.63917969 16.05632813 6.65335938 16.92515625 6.66796875 17.8203125 C6.4375 20.0625 6.4375 20.0625 4.4375 22.0625 C1.4921875 22.046875 1.4921875 22.046875 -1.5625 21.0625 C-3.2421875 18.515625 -3.2421875 18.515625 -4.4375 15.3125 C-4.84742188 14.26578125 -5.25734375 13.2190625 -5.6796875 12.140625 C-6.51882974 9.21476621 -6.88059224 7.0765543 -6.5625 4.0625 C-4.52046217 1.18852083 -3.58228162 0.08737272 0 0 Z " fill="#070606" transform="translate(603.5625,706.9375)"/>
<path d="M0 0 C1.2684375 0.12375 1.2684375 0.12375 2.5625 0.25 C4.84469901 3.67329851 4.85991163 5.09137668 4.875 9.125 C4.89175781 10.15367187 4.90851563 11.18234375 4.92578125 12.2421875 C4.51957915 15.6053662 3.48687719 17.4979883 1.5625 20.25 C-0.7475 19.92 -3.0575 19.59 -5.4375 19.25 C-7.21992662 13.90272015 -7.14120144 8.96336004 -5 3.75 C-2.83818493 0.29109589 -2.83818493 0.29109589 0 0 Z " fill="#030303" transform="translate(456.4375,778.75)"/>
<path d="M0 0 C4.83208806 0.09861404 7.31150081 0.83795832 10.875 4.1875 C13.71614301 7.30379875 15.19851469 9.63267693 15 14 C13.9375 15.9375 13.9375 15.9375 12 17 C8.69782002 17.15009909 6.74249514 16.55421416 4.08984375 14.57421875 C1.05757104 11.76609761 -0.76446696 9.720454 -2.0625 5.75 C-2 3 -2 3 0 0 Z " fill="#070707" transform="translate(646,628)"/>
<path d="M0 0 C2.49440101 3.74160152 2.50639994 6.67186297 2 11 C1.31803519 13.78646561 0.50048326 15.4647007 -1 18 C-3.6875 18.9375 -3.6875 18.9375 -6 19 C-8.84928072 16.02683751 -9.68443878 13.18278805 -10.07421875 9.1015625 C-9.94785932 5.5235954 -8.72120482 3.123668 -7 0 C-4.27584084 -1.36207958 -2.87220643 -0.86166193 0 0 Z " fill="#060605" transform="translate(484,807)"/>
<path d="M0 0 C3.1875 0.5 3.1875 0.5 6 3.3125 C9.13444318 7.87983149 9.48613178 11.0250841 9.1875 16.5 C7.1875 18.5 7.1875 18.5 4.375 18.5625 C0.5242365 17.27891217 -0.69321911 15.89228049 -2.8359375 12.546875 C-4.47114495 9.11948019 -4.74812693 6.29801102 -4.8125 2.5 C-2.8125 0.5 -2.8125 0.5 0 0 Z " fill="#060606" transform="translate(628.8125,710.5)"/>
<path d="M0 0 C3.42384774 0 5.98192952 0.22120994 8.76171875 2.34765625 C12.81730616 6.65855909 14 10.10515975 14 16 C12 18 12 18 9.75 18.5625 C5.42466858 17.67777312 3.44058471 14.52131284 1 11 C-0.99721187 7.50823025 -1.26950078 5.04251172 -1 1 C-0.67 0.67 -0.34 0.34 0 0 Z " fill="#040403" transform="translate(644,587)"/>
<path d="M0 0 C3.81205726 3.91794774 5.14305004 7.16627454 5.1875 12.5625 C5.20167969 13.34753906 5.21585938 14.13257813 5.23046875 14.94140625 C5 17 5 17 3 19 C-0.33691506 18.91218645 -1.71504008 18.26053479 -4.1875 16 C-6.49239517 12.1850011 -7.57624302 8.43698484 -8 4 C-7.67 3.01 -7.34 2.02 -7 1 C-4.37869511 -0.31065245 -2.90828303 -0.415469 0 0 Z " fill="#050505" transform="translate(540,739)"/>
<path d="M0 0 C3 1.1875 3 1.1875 4.0546875 2.765625 C6.05894555 7.61402065 6.44812813 11.98921367 6 17.1875 C4 19.1875 4 19.1875 1.625 19.625 C-1 19.1875 -1 19.1875 -3.25 16.9375 C-6.16589534 12.35537875 -6.39570798 8.62848474 -6 3.1875 C-4.33183824 0.2218791 -3.40157176 0.21259824 0 0 Z " fill="#070706" transform="translate(586,745.8125)"/>
<path d="M0 0 C2.94830826 1.34014012 4.24361444 3.30325195 6.0625 5.9375 C7.37015478 9.86046433 7.2596417 12.79752433 7.0625 16.9375 C6.4025 17.5975 5.7425 18.2575 5.0625 18.9375 C1.625 18.9375 1.625 18.9375 -1.9375 17.9375 C-5.31586743 13.68729582 -5.28851643 9.32569279 -5.3359375 4.109375 C-5.20445312 3.39265625 -5.07296875 2.6759375 -4.9375 1.9375 C-1.9375 -0.0625 -1.9375 -0.0625 0 0 Z " fill="#060505" transform="translate(612.9375,743.0625)"/>
<path d="M0 0 C2.8125 -0.5625 2.8125 -0.5625 6 0 C9.35732144 3.28101868 11.78684394 6.39000696 13 11 C12.6546935 14.02143183 12.19398174 14.80601826 10 17 C6.78971929 17.07296093 4.77887709 16.64142819 2.2734375 14.578125 C-0.46502829 11.64498154 -1.88072335 9.7752982 -2.5 5.75 C-2 3 -2 3 0 0 Z " fill="#070707" transform="translate(666,665)"/>
<path d="M0 0 C3.62647696 0.20147094 4.78024161 0.75582402 7.25 3.5 C9.30644972 7.61289943 10.26372881 11.38474582 10 16 C9.34 16.99 8.68 17.98 8 19 C5.0625 19.4375 5.0625 19.4375 2 19 C-1.36372823 15.63627177 -2.14883964 12.1392437 -2.1875 7.5 C-2.20167969 6.7265625 -2.21585938 5.953125 -2.23046875 5.15625 C-2 3 -2 3 0 0 Z " fill="#070707" transform="translate(559,766)"/>
<path d="M0 0 C2.375 0.75 2.375 0.75 3.375 1.75 C4.27123546 7.89561459 2.343782 10.96611967 -1.21484375 15.9296875 C-2.625 17.75 -2.625 17.75 -3.625 18.75 C-6.0625 18.9375 -6.0625 18.9375 -8.625 18.75 C-9.285 18.09 -9.945 17.43 -10.625 16.75 C-10.36627924 10.1526205 -7.96408357 6.00437715 -4.1875 0.75 C-2.625 -0.25 -2.625 -0.25 0 0 Z " fill="#050404" transform="translate(359.625,713.25)"/>
<path d="M0 0 C2.75 -0.375 2.75 -0.375 6 0 C9.78349256 3.68392696 10.26503215 6.51965411 10.375 11.75 C10.30747922 16.69252078 10.30747922 16.69252078 8 19 C5.5625 19.375 5.5625 19.375 3 19 C-0.5086918 15.36599778 -1.13946401 11.84803084 -1.125 6.9375 C-1.12757813 6.05964844 -1.13015625 5.18179688 -1.1328125 4.27734375 C-1 2 -1 2 0 0 Z " fill="#020202" transform="translate(502,785)"/>
<path d="M0 0 C4.20677051 0.39686514 6.09756099 1.59766262 9.3125 4.3125 C11.43181043 7.52564807 12.4052008 9.26961595 12.0625 13.125 C11.3125 15.3125 11.3125 15.3125 10.3125 16.3125 C7.11146128 16.71608519 5.63580823 16.51039136 2.85546875 14.80859375 C-3.54415821 9.21555327 -3.54415821 9.21555327 -4.3125 4.375 C-3.50276495 0.40729825 -3.50276495 0.40729825 0 0 Z " fill="#050505" transform="translate(623.6875,610.6875)"/>
<path d="M0 0 C4.99100784 1.46794348 8.29772417 3.60283625 11.1875 7.9375 C11.4375 10.5 11.4375 10.5 11.1875 12.9375 C9.1875 14.9375 9.1875 14.9375 6.5625 15.4375 C1.46833707 14.6828092 -2.20935432 11.54064568 -5.8125 7.9375 C-6.10681219 5.1415342 -6.15022308 3.50037181 -4.6875 1.0625 C-2.8125 -0.0625 -2.8125 -0.0625 0 0 Z " fill="#070706" transform="translate(557.8125,618.0625)"/>
<path d="M0 0 C3.67889913 0.21022281 4.97774115 0.97976468 7.75 3.5 C10.58887733 7.18964499 11.35927397 11.39392344 11 16 C9 18 9 18 6.578125 18.3515625 C4 18 4 18 2.234375 16.4609375 C-3.1124377 8.94725861 -3.1124377 8.94725861 -3 4 C-1.5625 1.625 -1.5625 1.625 0 0 Z " fill="#060605" transform="translate(642,687)"/>
<path d="M0 0 C4.54246329 1.48503608 6.79913565 4.01498135 9.25 8.0625 C10.25 11.875 10.25 11.875 10.25 15.0625 C8.25 17.0625 8.25 17.0625 5 17.1875 C0.40642288 15.80942686 -1.03484425 14.087078 -3.65234375 10.19921875 C-5.13653917 7.31005542 -5.35579955 5.24294763 -4.75 2.0625 C-2.75 0.0625 -2.75 0.0625 0 0 Z " fill="#080808" transform="translate(527.75,611.9375)"/>
<path d="M0 0 C2.8125 0.0625 2.8125 0.0625 6 1 C9.15909155 5.89149659 9.22973734 9.50541631 8.421875 15.1796875 C8 17 8 17 7 18 C4.125 18.3125 4.125 18.3125 1 18 C-2.10727866 14.89272134 -2.93328529 11.9173272 -3.25 7.5625 C-2.99048487 3.86440936 -2.5119293 2.61659303 0 0 Z " fill="#040404" transform="translate(528,807)"/>
<path d="M0 0 C3.25 0.4375 3.25 0.4375 6.0625 2.875 C8.87132201 6.65923287 9.37979352 10.80201722 9.25 15.4375 C8.92 16.0975 8.59 16.7575 8.25 17.4375 C5.5625 17.8125 5.5625 17.8125 2.25 17.4375 C-1.09807247 14.16552009 -3.5690434 11.04323072 -4.75 6.4375 C-4.09245134 0.6510718 -4.09245134 0.6510718 0 0 Z " fill="#080707" transform="translate(611.75,670.5625)"/>
<path d="M0 0 C1 1 1 1 1.4375 4.125 C0.86452893 9.1998866 -1.04606502 11.8332738 -5 15 C-9.95238095 16.52380952 -9.95238095 16.52380952 -13 15 C-13.71920089 8.16759156 -13.71920089 8.16759156 -11.734375 4.9453125 C-7.87488397 0.4300827 -6.05225925 -1.55186135 0 0 Z " fill="#070606" transform="translate(423,746)"/>
<path d="M0 0 C2.375 0.6875 2.375 0.6875 4.25 2.3125 C5.86674073 5.72561933 5.61692076 7.09972892 4.375 10.6875 C2.22158322 13.53473842 -0.13816542 16.12924197 -2.625 18.6875 C-5.49224686 18.11405063 -6.4864515 17.8260485 -8.625 15.6875 C-8.53040645 10.10648056 -7.50889793 6.38262543 -4.0234375 1.98046875 C-2.625 0.6875 -2.625 0.6875 0 0 Z " fill="#070707" transform="translate(384.625,711.3125)"/>
<path d="M0 0 C2.9375 0 2.9375 0 6 1 C9.11205778 5.14941038 9.34739086 9.04430413 9.3984375 14.046875 C9 16 9 16 6 18 C3.5625 18.125 3.5625 18.125 1 17 C-1.96019656 13.17679942 -3.0307724 9.9539445 -2.875 5.125 C-2 2 -2 2 0 0 Z " fill="#080808" transform="translate(636,750)"/>
<path d="M0 0 C3.77222206 0.77159088 5.17795157 2.58260869 7.515625 5.546875 C9.34280571 8.53049919 9.75 11.09762903 9.75 14.5625 C7.75 16.5625 7.75 16.5625 5 17.125 C0.81637548 16.40091114 -0.56893527 14.86016714 -3.1171875 11.578125 C-4.86381997 8.47032377 -4.79273251 6.02241974 -4.25 2.5625 C-2.25 0.5625 -2.25 0.5625 0 0 Z " fill="#030303" transform="translate(635.25,654.4375)"/>
<path d="M0 0 C2.875 -0.5 2.875 -0.5 6 0 C8.66568769 2.7377333 10.92119672 5.25371928 11.09765625 9.1640625 C11.08605469 9.97617187 11.07445312 10.78828125 11.0625 11.625 C11.05347656 12.44226563 11.04445313 13.25953125 11.03515625 14.1015625 C11.02355469 14.72804688 11.01195312 15.35453125 11 16 C8.375 16.9375 8.375 16.9375 5 17 C1.08984526 14.13255319 -0.76410862 10.88459268 -2 6.25 C-2 3 -2 3 0 0 Z " fill="#040404" transform="translate(607,634)"/>
<path d="M0 0 C1 1 1 1 1.375 4.1875 C0.89889831 9.02786721 -0.43825912 10.74797571 -4 14 C-7.125 15 -7.125 15 -10 15 C-13 13 -13 13 -13.5625 10.3125 C-12.78020192 5.70563352 -10.34973337 3.15013786 -7 0 C-4.31633121 -1.3418344 -2.84719317 -0.73004953 0 0 Z " fill="#050505" transform="translate(339,619)"/>
<path d="M0 0 C3.71188928 1.51358592 5.88872086 4.5084358 8.01171875 7.8203125 C9.01171875 11.6328125 9.01171875 11.6328125 9.01171875 14.8203125 C7.01171875 16.8203125 7.01171875 16.8203125 4.625 17.16796875 C0.46628031 16.61471606 -1.04202186 14.18849123 -3.59375 11.05859375 C-5.61058801 7.821484 -5.72801889 5.5190007 -4.98828125 1.8203125 C-1.98828125 -0.1796875 -1.98828125 -0.1796875 0 0 Z " fill="#050505" transform="translate(502.98828125,614.1796875)"/>
<path d="M0 0 C3.61045189 0.79253822 4.58689441 2.52853428 6.5625 5.5625 C7.743433 9.105299 7.83278374 11.84609861 7.5625 15.5625 C4.5625 17.5625 4.5625 17.5625 2.125 17.5625 C-1.59536566 16.11064999 -2.59882298 14.04285292 -4.4375 10.5625 C-5.47718495 7.0968835 -5.87011938 5.47580758 -4.3125 2.1875 C-2.4375 0.5625 -2.4375 0.5625 0 0 Z " fill="#080807" transform="translate(655.4375,725.4375)"/>
<path d="M0 0 C2.59807057 1.13665588 3.52251711 2.48288484 5 4.875 C6.28317892 8.72453676 6.06643637 11.82238135 6 15.875 C4.35 16.535 2.7 17.195 1 17.875 C-2.70861858 15.2399289 -4.9520814 13.38104998 -6 8.875 C-5.8125 5.1875 -5.8125 5.1875 -5 1.875 C-2 -0.125 -2 -0.125 0 0 Z " fill="#070807" transform="translate(577,707.125)"/>
<path d="M0 0 C3.43299226 0.49042747 4.48973378 1.70591723 6.625 4.375 C7.93265478 8.29796433 7.8221417 11.23502433 7.625 15.375 C6.965 16.035 6.305 16.695 5.625 17.375 C1.86387874 17.375 0.61686998 16.36759265 -2.1875 13.8125 C-5.10128674 10.02824237 -4.91720278 7.02245242 -4.375 2.375 C-2.375 0.375 -2.375 0.375 0 0 Z " fill="#060606" transform="translate(584.375,636.625)"/>
<path d="M0 0 C2.375 1 2.375 1 3.5390625 2.7421875 C4.54264835 5.45280723 4.44954643 7.26386701 4.125 10.125 C4.03734375 10.99382813 3.9496875 11.86265625 3.859375 12.7578125 C3.375 15 3.375 15 1.375 17 C-1.625 17.25 -1.625 17.25 -4.625 17 C-7.20899406 14.41600594 -6.9518593 13.21629635 -7 9.625 C-6.92852454 5.99404653 -6.86166738 4.38568018 -4.9375 1.25 C-2.625 0 -2.625 0 0 0 Z " fill="#050505" transform="translate(403.625,775)"/>
<path d="M0 0 C2.9375 0.1875 2.9375 0.1875 3.9375 1.1875 C4.40258174 5.76080374 4.65514893 8.87124564 1.8125 12.625 C-1.32696171 15.42321587 -2.88957905 16.1875 -7.0625 16.1875 C-9.0625 14.1875 -9.0625 14.1875 -9.4375 11.4375 C-8.81952133 6.08168482 -5.71108662 0.34965836 0 0 Z " fill="#040404" transform="translate(390.0625,620.8125)"/>
<path d="M0 0 C3.06890783 2.72791808 4.24497855 5.15439968 4.875 9.125 C5 13 5 13 3 16 C0.6875 16.5625 0.6875 16.5625 -2 16 C-5.4896739 12.74825842 -6.74742539 10.93136889 -8 6.3125 C-8 3 -8 3 -6.875 1.0625 C-4.28753795 -0.4037285 -2.92973283 -0.57165519 0 0 Z " fill="#040404" transform="translate(684,638)"/>
<path d="M0 0 C1.91423658 0.81210037 3.52072017 1.52072017 5 3 C5.16796875 4.92578125 5.16796875 4.92578125 5.1875 7.3125 C5.20167969 8.09238281 5.21585937 8.87226562 5.23046875 9.67578125 C4.97195554 12.28282121 4.49239224 13.8453887 3 16 C-0.625 16.75 -0.625 16.75 -4 17 C-5.5625 15.4375 -5.5625 15.4375 -7 13 C-6.90374505 7.705978 -5.67426639 4.78560779 -2 1 C-1.34 0.67 -0.68 0.34 0 0 Z " fill="#050505" transform="translate(484,774)"/>
<path d="M0 0 C2.625 0.5 2.625 0.5 4.9375 2.9375 C6.96420008 7.21608905 7.42908585 10.82508227 6.625 15.5 C4.625 17.5 4.625 17.5 2.25 18 C-0.375 17.5 -0.375 17.5 -2.6875 15.0625 C-4.71420008 10.78391095 -5.17908585 7.17491773 -4.375 2.5 C-2.375 0.5 -2.375 0.5 0 0 Z " fill="#020202" transform="translate(523.375,761.5)"/>
<path d="M0 0 C1.796875 0.75 1.796875 0.75 2.796875 1.75 C3.49714025 8.75265252 3.49714025 8.75265252 0.734375 12.6875 C-2.6712876 15.07870991 -5.08879514 15.5079806 -9.203125 15.75 C-10.84941413 12.45742173 -10.74139518 10.3982757 -10.203125 6.75 C-4.39072793 -0.49823863 -4.39072793 -0.49823863 0 0 Z " fill="#060606" transform="translate(391.203125,747.25)"/>
<path d="M0 0 C2.75 0.625 2.75 0.625 4.75 3.625 C4.75 8.16632054 2.29854043 11.00817133 -0.62890625 14.23046875 C-2.25 15.625 -2.25 15.625 -4.9375 16.25 C-7.65786739 15.51476557 -8.75620302 15.03167291 -10.25 12.625 C-10.37412897 8.15635704 -7.80858722 5.19070249 -4.94140625 2.01953125 C-3.25 0.625 -3.25 0.625 0 0 Z " fill="#050505" transform="translate(361.25,627.375)"/>
<path d="M0 0 C2 3 2 3 1.9375 5.875 C0.7458949 9.84701701 -0.70189803 11.50810073 -4 14 C-7.1875 14.4375 -7.1875 14.4375 -10 14 C-12 12 -12 12 -12.375 9.1875 C-11.91204903 5.25241675 -10.77631252 3.77631252 -8 1 C-5.06916198 -1.01495114 -3.30857406 -1.43371543 0 0 Z " fill="#050505" transform="translate(384,685)"/>
<path d="M0 0 C3.76013335 1.55907968 4.78399152 3.43961235 6.5625 7.0625 C6.99275169 9.92553285 6.85584861 12.12901388 6.5625 15.0625 C5.9025 15.7225 5.2425 16.3825 4.5625 17.0625 C1.625 17 1.625 17 -1.4375 16.0625 C-4.84439255 12.18569124 -5.27629131 8.05996925 -5.4375 3.0625 C-3.92073649 0.2817669 -3.13845153 0.08047312 0 0 Z " fill="#070707" transform="translate(669.4375,700.9375)"/>
<path d="M0 0 C2.5 1 2.5 1 4.375 3 C5.90288771 7.07436722 5.79341161 10.83324994 4.5 15 C1.5 17 1.5 17 -0.5 16.875 C-3.30451149 15.64802622 -4.11675786 14.76648428 -5.5 12 C-5.9082597 8.94908628 -6.06952881 6.03190336 -5.5 3 C-3.62777919 0.56611295 -3.13469403 0 0 0 Z " fill="#090908" transform="translate(544.5,784)"/>
<path d="M0 0 C2.9375 -0.5 2.9375 -0.5 6 0 C8.66578202 2.84350082 9.19403686 5.34811622 9.3125 9.125 C9 13 9 13 7 16 C1.62686567 15.52238806 1.62686567 15.52238806 -0.875 13.4375 C-2.57064713 9.76359789 -2.32072406 7.04112321 -2 3 C-1.34 2.01 -0.68 1.02 0 0 Z " fill="#060606" transform="translate(424,797)"/>
<path d="M0 0 C2 3 2 3 1.9375 5.375 C0.65474143 8.96672401 -1.00015199 10.66678488 -4 13 C-7.1875 13.4375 -7.1875 13.4375 -10 13 C-12 11 -12 11 -12.375 8.1875 C-11.91533028 4.2803074 -10.75388032 2.75388032 -8 0 C-4.67212881 -1.1092904 -3.3006216 -1.01557588 0 0 Z " fill="#070707" transform="translate(338,649)"/>
<path d="M0 0 C2.4375 0.875 2.4375 0.875 4.4375 3.875 C4.703125 6.25 4.703125 6.25 4.6875 8.875 C4.69265625 9.74125 4.6978125 10.6075 4.703125 11.5 C4.4375 13.875 4.4375 13.875 2.4375 16.875 C-0.3534249 17.30437306 -1.87527302 17.37032828 -4.19921875 15.6953125 C-6.06944925 13.19809928 -5.96243218 11.46658995 -5.9375 8.375 C-5.94523438 7.4159375 -5.95296875 6.456875 -5.9609375 5.46875 C-5.5625 2.875 -5.5625 2.875 -4.19921875 1.0234375 C-2.5625 -0.125 -2.5625 -0.125 0 0 Z " fill="#060505" transform="translate(579.5625,788.125)"/>
<path d="M0 0 C2.9375 0.0625 2.9375 0.0625 6 1 C8.64378819 3.90816701 9.19453821 6.37108906 9.3125 10.1875 C9 14 9 14 7 16 C4.625 16.5 4.625 16.5 2 16 C-1.00941797 12.74657516 -2.25541187 10.1189532 -2.375 5.75 C-2 2 -2 2 0 0 Z " fill="#030303" transform="translate(602,778)"/>
<path d="M0 0 C2.3125 0.5 2.3125 0.5 4.3125 2.5 C4.56184131 6.80529327 3.95831484 10.49539914 1.625 14.125 C-0.6875 15.5 -0.6875 15.5 -3.8125 15.4375 C-6.6875 14.5 -6.6875 14.5 -8.6875 11.5 C-8.54582379 6.25798027 -5.3526718 0.99584592 0 0 Z " fill="#040404" transform="translate(433.6875,766.5)"/>
<path d="M0 0 C3.3125 0.9375 3.3125 0.9375 5.3125 2.9375 C5.229052 6.77610799 4.74709697 8.46565186 2.125 11.3125 C-1.14870206 13.2039723 -2.96594265 13.43370765 -6.6875 12.9375 C-8.6875 10.9375 -8.6875 10.9375 -9.125 8.125 C-8.6875 4.9375 -8.6875 4.9375 -6.625 2 C-3.6875 -0.0625 -3.6875 -0.0625 0 0 Z " fill="#060605" transform="translate(373.6875,655.0625)"/>
<path d="M0 0 C2.8125 0.4375 2.8125 0.4375 4.8125 2.4375 C5.43674145 6.45048073 5.14181492 7.97845495 2.75 11.3125 C-0.87308638 13.9334561 -2.8069943 14.01605736 -7.1875 13.4375 C-7.8475 12.7775 -8.5075 12.1175 -9.1875 11.4375 C-9.10038675 7.5174038 -8.38844613 5.70160062 -6 2.5625 C-3.1875 0.4375 -3.1875 0.4375 0 0 Z " fill="#060606" transform="translate(356.1875,684.5625)"/>
<path d="M0 0 C3.5447602 0.23631735 5.41978239 0.40106569 7.9375 3 C9.42221141 7.19212634 8.77940841 10.68977757 8 15 C5.75 15.75 5.75 15.75 3 16 C0.71032629 14.15554062 -0.68681224 12.62637553 -2 10 C-2.35294118 3.52941176 -2.35294118 3.52941176 0 0 Z " fill="#060706" transform="translate(586,673)"/>
<path d="M0 0 C1.5778125 0.433125 1.5778125 0.433125 3.1875 0.875 C4 4.0625 4 4.0625 4.1875 7.875 C1.89303573 10.97927518 0.20177857 12.51275765 -3.4375 13.8125 C-5.8125 13.875 -5.8125 13.875 -8.8125 11.875 C-9.35505485 8.89094833 -9.30243439 6.85704626 -7.93359375 4.11328125 C-5.43893389 0.58123809 -4.35478114 -0.14277971 0 0 Z " fill="#050505" transform="translate(348.8125,661.125)"/>
<path d="M0 0 C0.66 0.99 1.32 1.98 2 3 C2.66 2.34 3.32 1.68 4 1 C5.20484722 6.63526965 5.1129643 12.14536115 5.0625 17.875 C5.05798828 18.84953125 5.05347656 19.8240625 5.04882812 20.828125 C5.03710906 23.21881434 5.02070219 25.6093744 5 28 C3.35 28 1.7 28 0 28 C0 25.36 0 22.72 0 20 C-0.33 20 -0.66 20 -1 20 C-1.02888514 16.85418577 -1.04675923 13.70840531 -1.0625 10.5625 C-1.07087891 9.66466797 -1.07925781 8.76683594 -1.08789062 7.84179688 C-1.09111328 6.98779297 -1.09433594 6.13378906 -1.09765625 5.25390625 C-1.10551147 4.06776733 -1.10551147 4.06776733 -1.11352539 2.85766602 C-1 1 -1 1 0 0 Z " fill="#FCFAF7" transform="translate(575,969)"/>
<path d="M0 0 C2.375 0.5 2.375 0.5 4.375 2.5 C4.8248953 7.07393555 4.90636727 9.45852016 2.8125 13.5625 C0.375 15.5 0.375 15.5 -3.375 15.3125 C-4.4475 15.044375 -5.52 14.77625 -6.625 14.5 C-6.95045548 9.78089547 -7.01649665 7.31199306 -4.9375 3 C-2.625 0.5 -2.625 0.5 0 0 Z " fill="#040404" transform="translate(406.625,720.5)"/>
<path d="M0 0 C2.97 0.495 2.97 0.495 6 1 C6 1.99 6 2.98 6 4 C5.01 4 4.02 4 3 4 C3 10.27 3 16.54 3 23 C2.67 23 2.34 23 2 23 C1.67 44.12 1.34 65.24 1 87 C0.67 87 0.34 87 0 87 C0 58.29 0 29.58 0 0 Z " fill="#E3E1DD" transform="translate(470,947)"/>
<path d="M0 0 C-0.14021805 2.64624284 -0.28689776 5.29184578 -0.4375 7.9375 C-0.49647461 9.06961914 -0.49647461 9.06961914 -0.55664062 10.22460938 C-0.88671875 15.88671875 -0.88671875 15.88671875 -2 17 C-4.31 17 -6.62 17 -9 17 C-8.67 11.39 -8.34 5.78 -8 0 C-4.29847322 -0.92538169 -3.36541838 -1.08174162 0 0 Z " fill="#FDFBF7" transform="translate(456,1092)"/>
<path d="M0 0 C2.31 0.33 4.62 0.66 7 1 C7 6.28 7 11.56 7 17 C5.02 17 3.04 17 1 17 C0 16 0 16 -0.09765625 12.40234375 C-0.0909822 10.91403133 -0.07902183 9.42573568 -0.0625 7.9375 C-0.05798828 7.17888672 -0.05347656 6.42027344 -0.04882812 5.63867188 C-0.0370068 3.75908129 -0.01907078 1.87953101 0 0 Z " fill="#FAF8F5" transform="translate(570,1100)"/>
<path d="M0 0 C0.33 0 0.66 0 1 0 C1.144375 0.9075 1.28875 1.815 1.4375 2.75 C1.91021851 5.81200516 1.91021851 5.81200516 2.5625 8 C3.14981859 10.68488499 3.06223458 13.2616784 3 16 C4.32 16.33 5.64 16.66 7 17 C7 19.31 7 21.62 7 24 C5.35 24.66 3.7 25.32 2 26 C1.67 28.31 1.34 30.62 1 33 C0.67 33 0.34 33 0 33 C0 22.11 0 11.22 0 0 Z " fill="#F0EFEC" transform="translate(573,980)"/>
<path d="M0 0 C0.33 0 0.66 0 1 0 C1.66 10.23 2.32 20.46 3 31 C1.53482502 28.06965003 0.56057275 25.8180735 -0.2890625 22.7421875 C-0.50820313 21.95199219 -0.72734375 21.16179687 -0.953125 20.34765625 C-1.28570313 19.12369141 -1.28570313 19.12369141 -1.625 17.875 C-1.85445312 17.05128906 -2.08390625 16.22757813 -2.3203125 15.37890625 C-4 9.27004278 -4 9.27004278 -4 7 C-3.01 7.33 -2.02 7.66 -1 8 C-0.67 5.36 -0.34 2.72 0 0 Z " fill="#F5F4F1" transform="translate(933,1006)"/>
<path d="M0 0 C0.99 0 1.98 0 3 0 C3 4.95 3 9.9 3 15 C1.35 15.33 -0.3 15.66 -2 16 C-1.85936865 13.70800823 -1.71234057 11.41640814 -1.5625 9.125 C-1.48128906 7.84882812 -1.40007813 6.57265625 -1.31640625 5.2578125 C-1 2 -1 2 0 0 Z " fill="#FAF7F1" transform="translate(572,1070)"/>
<path d="M0 0 C13.86 0 27.72 0 42 0 C42 0.33 42 0.66 42 1 C36.06 1.33 30.12 1.66 24 2 C24 2.33 24 2.66 24 3 C15.73252149 3.23658921 8.07953776 2.81344335 0 1 C0 0.67 0 0.34 0 0 Z " fill="#DFDCDA" transform="translate(486,951)"/>
<path d="M0 0 C1 2 1 2 0.00390625 5.4765625 C-0.46900047 6.86197936 -0.94981644 8.24471547 -1.4375 9.625 C-1.68048828 10.33140625 -1.92347656 11.0378125 -2.17382812 11.765625 C-2.77587205 13.51273287 -3.38708017 15.25667786 -4 17 C-4.66 17 -5.32 17 -6 17 C-6.28875 16.360625 -6.5775 15.72125 -6.875 15.0625 C-7.82823451 12.84793921 -7.82823451 12.84793921 -10 12 C-9.44570313 11.38511719 -8.89140625 10.77023437 -8.3203125 10.13671875 C-7.59585938 9.32847656 -6.87140625 8.52023437 -6.125 7.6875 C-5.40570312 6.88699219 -4.68640625 6.08648438 -3.9453125 5.26171875 C-1.88394498 2.95810917 -1.88394498 2.95810917 0 0 Z " fill="#F2F1EF" transform="translate(673,771)"/>
<path d="M0 0 C0.99 0 1.98 0 3 0 C3 11.22 3 22.44 3 34 C2.67 34 2.34 34 2 34 C1.93941406 32.71867188 1.87882813 31.43734375 1.81640625 30.1171875 C1.33257424 20.0667213 0.78067292 10.03247756 0 0 Z " fill="#D2D0CE" transform="translate(666,522)"/>
<path d="M0 0 C1.39712274 1.95597184 2.73779907 3.95436401 4 6 C4.66 6.66 5.32 7.32 6 8 C4.35 8.33 2.7 8.66 1 9 C-0.32 6.03 -1.64 3.06 -3 0 C-6.71736641 -0.34900558 -6.71736641 -0.34900558 -9.8125 1.5 C-10.204375 1.995 -10.59625 2.49 -11 3 C-11 0 -11 0 -10 -2 C-5.65381757 -3.56945477 -3.56094114 -2.83049167 0 0 Z " fill="#F0EFEE" transform="translate(565,810)"/>
<path d="M0 0 C6.27 0 12.54 0 19 0 C14.45532573 3.02978285 9.92448759 3.1781933 4.625 2.6875 C2 2 2 2 0 0 Z " fill="#F4F3F0" transform="translate(590,325)"/>
<path d="M0 0 C0.556875 0.7734375 0.556875 0.7734375 1.125 1.5625 C3.03173152 3.36319983 3.03173152 3.36319983 6.1875 2.6875 C7.115625 2.460625 8.04375 2.23375 9 2 C9 2.66 9 3.32 9 4 C8.34 4 7.68 4 7 4 C7 4.99 7 5.98 7 7 C3.37 6.67 -0.26 6.34 -4 6 C-2.68 4.02 -1.36 2.04 0 0 Z " fill="#EBEAE7" transform="translate(475,822)"/>
<path d="M0 0 C5.28 0 10.56 0 16 0 C16 0.33 16 0.66 16 1 C11.545 1.495 11.545 1.495 7 2 C6.67 3.65 6.34 5.3 6 7 C1.125 2.25 1.125 2.25 0 0 Z " fill="#F1F0EE" transform="translate(497,334)"/>
<path d="M0 0 C0.66 0.33 1.32 0.66 2 1 C2 7.6 2 14.2 2 21 C1.67 21 1.34 21 1 21 C0.67 18.36 0.34 15.72 0 13 C-0.33 13 -0.66 13 -1 13 C-1.02696365 11.20841511 -1.04637917 9.41671527 -1.0625 7.625 C-1.07410156 6.62726562 -1.08570313 5.62953125 -1.09765625 4.6015625 C-1 2 -1 2 0 0 Z " fill="#F1EEEA" transform="translate(310,522)"/>
<path d="M0 0 C3.7682873 2.51219153 4.28412065 4.89681026 6 9 C6.66 9.33 7.32 9.66 8 10 C7.67 10.66 7.34 11.32 7 12 C5.68176698 11.40844669 4.37052949 10.80128537 3.0625 10.1875 C2.33160156 9.85105469 1.60070312 9.51460937 0.84765625 9.16796875 C-1 8 -1 8 -2 5 C-1.0625 2.3125 -1.0625 2.3125 0 0 Z " fill="#F2F0EE" transform="translate(419,802)"/>
<path d="M0 0 C4.29 0.33 8.58 0.66 13 1 C13 1.33 13 1.66 13 2 C14.65 2.33 16.3 2.66 18 3 C18 3.33 18 3.66 18 4 C12.22192976 4.2358396 7.48675196 3.86783046 2 2 C2.33 3.32 2.66 4.64 3 6 C1.5 4.6875 1.5 4.6875 0 3 C0 2.01 0 1.02 0 0 Z " fill="#F0EFEC" transform="translate(427,672)"/>
<path d="M0 0 C1.30211046 3.90633137 0.47812346 6.19538173 -0.4375 10.1875 C-0.72496094 11.45980469 -1.01242188 12.73210937 -1.30859375 14.04296875 C-1.53675781 15.01878906 -1.76492187 15.99460937 -2 17 C-2.33 17 -2.66 17 -3 17 C-3.02712153 15.083412 -3.04645097 13.1667127 -3.0625 11.25 C-3.07410156 10.18265625 -3.08570312 9.1153125 -3.09765625 8.015625 C-3.01454043 5.44900837 -2.89084647 3.39800183 -2 1 C-1.34 0.67 -0.68 0.34 0 0 Z " fill="#F6F5F3" transform="translate(93,1091)"/>
<path d="M0 0 C0 0.66 0 1.32 0 2 C-0.95712891 2.09087891 -0.95712891 2.09087891 -1.93359375 2.18359375 C-3.17302734 2.30927734 -3.17302734 2.30927734 -4.4375 2.4375 C-5.67306641 2.55931641 -5.67306641 2.55931641 -6.93359375 2.68359375 C-8.98662025 2.78930815 -8.98662025 2.78930815 -10 4 C-12.33297433 4.04092937 -14.66705225 4.04241723 -17 4 C-17 3.01 -17 2.02 -17 1 C-15.10440036 0.83069605 -13.20850769 0.66467136 -11.3125 0.5 C-10.25675781 0.4071875 -9.20101563 0.314375 -8.11328125 0.21875 C-5.39363975 0.0276585 -2.72460144 -0.04043935 0 0 Z " fill="#E3E2DE" transform="translate(501,672)"/>
<path d="M0 0 C0 0.66 0 1.32 0 2 C-4.455 2.495 -4.455 2.495 -9 3 C-9 3.66 -9 4.32 -9 5 C-11.875 5.125 -11.875 5.125 -15 5 C-15.66 4.34 -16.32 3.68 -17 3 C-14.73000175 2.49622232 -12.45896997 1.99709981 -10.1875 1.5 C-8.29064453 1.08234375 -8.29064453 1.08234375 -6.35546875 0.65625 C-3 0 -3 0 0 0 Z " fill="#E6E6E3" transform="translate(556,847)"/>
<path d="M0 0 C0.66 0 1.32 0 2 0 C0.68842484 3.93472548 -1.33383447 5.12683424 -4.5625 7.6875 C-6.08037109 8.89986328 -6.08037109 8.89986328 -7.62890625 10.13671875 C-8.41136719 10.75160156 -9.19382812 11.36648438 -10 12 C-10 9 -10 9 -8 6 C-7.01 5.67 -6.02 5.34 -5 5 C-4.154375 4.154375 -3.30875 3.30875 -2.4375 2.4375 C-1.633125 1.633125 -0.82875 0.82875 0 0 Z " fill="#F0F0EE" transform="translate(633,778)"/>
<path d="M0 0 C2 2 2 2 2 5 C0.68 5.33 -0.64 5.66 -2 6 C-2 7.65 -2 9.3 -2 11 C-2.66 11 -3.32 11 -4 11 C-4.33 12.32 -4.66 13.64 -5 15 C-5.33 14.34 -5.66 13.68 -6 13 C-5.0390625 10.21484375 -5.0390625 10.21484375 -3.625 6.9375 C-3.16351563 5.85339844 -2.70203125 4.76929688 -2.2265625 3.65234375 C-1 1 -1 1 0 0 Z " fill="#E7E6E5" transform="translate(283,540)"/>
<path d="M0 0 C0.33 0 0.66 0 1 0 C1 3.63 1 7.26 1 11 C0.67 11 0.34 11 0 11 C-0.33 12.98 -0.66 14.96 -1 17 C-1.33 17 -1.66 17 -2 17 C-2.05418326 14.91695462 -2.09287551 12.83350232 -2.125 10.75 C-2.14820313 9.58984375 -2.17140625 8.4296875 -2.1953125 7.234375 C-2.0103949 4.17213954 -1.60823023 2.55797249 0 0 Z " fill="#F4F2EE" transform="translate(558,1014)"/>
<path d="M0 0 C0 2.97 0 5.94 0 9 C-0.33 9 -0.66 9 -1 9 C-1.33 11.64 -1.66 14.28 -2 17 C-2.33 17 -2.66 17 -3 17 C-3 11.72 -3 6.44 -3 1 C-1 0 -1 0 0 0 Z " fill="#F7F5F0" transform="translate(561,968)"/>
<path d="M0 0 C1.50303217 2.38716874 2.01411453 3.71065206 1.875 6.5625 C0.82403075 9.49020006 -0.38722542 10.39862203 -3 12 C-3 10.35 -3 8.7 -3 7 C-2.34 6.67 -1.68 6.34 -1 6 C-0.34227572 2.97065509 -0.34227572 2.97065509 0 0 Z " fill="#EEEDEB" transform="translate(645,760)"/>
<path d="M0 0 C3.63 1.32 7.26 2.64 11 4 C11 4.66 11 5.32 11 6 C6.64477147 5.49357808 3.55760365 4.61588503 0 2 C0 1.34 0 0.68 0 0 Z " fill="#F2F1EF" transform="translate(418,925)"/>
<path d="M0 0 C2.76544722 3.45680903 4.84921278 7.14341602 7 11 C6.01 11 5.02 11 4 11 C1 6.77777778 1 6.77777778 1 4 C0.34 4 -0.32 4 -1 4 C-0.67 2.68 -0.34 1.36 0 0 Z " fill="#EEEDEB" transform="translate(416,616)"/>
<path d="M0 0 C-0.66 0 -1.32 0 -2 0 C-2.33 1.32 -2.66 2.64 -3 4 C-3.99 3.34 -4.98 2.68 -6 2 C-6.33 2.99 -6.66 3.98 -7 5 C-7.33 5 -7.66 5 -8 5 C-8 3.35 -8 1.7 -8 0 C-4.94736336 -0.98120464 -3.05263664 -0.98120464 0 0 Z " fill="#EAE9E8" transform="translate(456,1092)"/>
<path d="M0 0 C0 3 0 3 0 3 Z M-6 7 C-5.67 7.99 -5.34 8.98 -5 10 C-6.32 10.99 -7.64 11.98 -9 13 C-9 10 -9 10 -7.5 8.3125 C-6.7575 7.6628125 -6.7575 7.6628125 -6 7 Z " fill="#F2F1EF" transform="translate(656,847)"/>
<path d="M0 0 C0.66 0.99 1.32 1.98 2 3 C1.34 3 0.68 3 0 3 C-0.0825 3.598125 -0.165 4.19625 -0.25 4.8125 C-1.20455872 7.5966296 -2.57132271 8.43311142 -5 10 C-4.55090939 8.51800098 -4.09043436 7.03944764 -3.625 5.5625 C-3.36976563 4.73878906 -3.11453125 3.91507813 -2.8515625 3.06640625 C-2 1 -2 1 0 0 Z " fill="#EDECEA" transform="translate(418,196)"/>
<path d="M0 0 C0.66 0 1.32 0 2 0 C2 0.66 2 1.32 2 2 C3.65 2.33 5.3 2.66 7 3 C4.08235 4.9451 2.37462715 5.45276317 -1 6 C-0.67 4.02 -0.34 2.04 0 0 Z " fill="#F1F0EE" transform="translate(494,193)"/>
<path d="M0 0 C0.66 0 1.32 0 2 0 C4.09350689 3.4019487 4.17942163 6.05272412 4 10 C3.01 10 2.02 10 1 10 C0.67 6.7 0.34 3.4 0 0 Z " fill="#E4E3DF" transform="translate(494,181)"/>
<path d="M0 0 C0.99 1.32 1.98 2.64 3 4 C6.27773504 3.24849977 6.27773504 3.24849977 8 0 C8.042721 1.66611905 8.04063832 3.33382885 8 5 C7 6 7 6 3.4375 6.0625 C2.303125 6.041875 1.16875 6.02125 0 6 C0 4.02 0 2.04 0 0 Z " fill="#DBDBD9" transform="translate(447,1103)"/>
<path d="M0 0 C3.8063457 0.67170806 7.35206816 1.72746564 11 3 C10.34 3.66 9.68 4.32 9 5 C6.17042171 4.63723355 3.70915709 3.90305236 1 3 C0.67 2.01 0.34 1.02 0 0 Z " fill="#F2F0EE" transform="translate(429,633)"/>
<path d="M0 0 C0.66 0.33 1.32 0.66 2 1 C2.43200679 5.75207471 0.98489083 8.78210698 -1 13 C-1.33 13 -1.66 13 -2 13 C-1.85769192 11.58297487 -1.71099254 10.1663904 -1.5625 8.75 C-1.48128906 7.96109375 -1.40007812 7.1721875 -1.31640625 6.359375 C-1.02365007 4.17635361 -0.57935581 2.1226818 0 0 Z " fill="#EAE8E7" transform="translate(98,1159)"/>
<path d="M0 0 C3.40843742 2.88406243 4.86591384 4.3708265 5.8125 8.8125 C5.9053125 10.3903125 5.9053125 10.3903125 6 12 C5.67 11.01 5.34 10.02 5 9 C4.34 9 3.68 9 3 9 C2.01 6.03 1.02 3.06 0 0 Z " fill="#F4F3F0" transform="translate(675,667)"/>
<path d="M0 0 C2.45823172 3.68734758 3.01242616 6.69699971 4 11 C0.96682713 8.97788475 0.14015354 8.32544781 -1 5 C-0.625 2.25 -0.625 2.25 0 0 Z " fill="#EDECEB" transform="translate(929,334)"/>
<path d="M0 0 C0.66 0.33 1.32 0.66 2 1 C1.55090939 2.48199902 1.09043436 3.96055236 0.625 5.4375 C0.36976562 6.26121094 0.11453125 7.08492187 -0.1484375 7.93359375 C-1 10 -1 10 -3 11 C-2.69217504 9.35328588 -2.37860766 7.70764424 -2.0625 6.0625 C-1.88847656 5.14597656 -1.71445313 4.22945312 -1.53515625 3.28515625 C-1 1 -1 1 0 0 Z " fill="#EEEDEB" transform="translate(107,1124)"/>
<path d="M0 0 C3.37462715 0.54723683 5.08235 1.0549 8 3 C5.64561267 4.42944945 4.51967567 5.08661261 1.75 4.625 C1.1725 4.41875 0.595 4.2125 0 4 C0 2.68 0 1.36 0 0 Z " fill="#F5F2ED" transform="translate(605,794)"/>
<path d="M0 0 C0.66 0.33 1.32 0.66 2 1 C1.34 2.32 0.68 3.64 0 5 C-2.31 4.34 -4.62 3.68 -7 3 C-4.66785852 1.79371992 -2.50357861 0.8345262 0 0 Z " fill="#E6E5E3" transform="translate(728,678)"/>
<path d="M0 0 C0.66 0.33 1.32 0.66 2 1 C1.34 1.66 0.68 2.32 0 3 C0 2.01 0 1.02 0 0 Z M-3 2 C-2.34 2.33 -1.68 2.66 -1 3 C-1.99 3 -2.98 3 -4 3 C-3.67 2.67 -3.34 2.34 -3 2 Z M-6 4 C-5.01 4.33 -4.02 4.66 -3 5 C-4.32 5.99 -5.64 6.98 -7 8 C-7.33 7.01 -7.66 6.02 -8 5 C-7.34 4.67 -6.68 4.34 -6 4 Z " fill="#EEEEEC" transform="translate(711,895)"/>
<path d="M0 0 C2.04119788 1.61594832 4.04072937 3.2856382 6 5 C6 5.66 6 6.32 6 7 C6.66 7 7.32 7 8 7 C7.67 7.99 7.34 8.98 7 10 C5.82739389 8.71372289 4.6620717 7.42080217 3.5 6.125 C2.8503125 5.40570312 2.200625 4.68640625 1.53125 3.9453125 C0 2 0 2 0 0 Z " fill="#EAE9E7" transform="translate(272,817)"/>
<path d="M0 0 C0.66 0 1.32 0 2 0 C2.125 5.75 2.125 5.75 1 8 C0.34 8 -0.32 8 -1 8 C-1.125 2.25 -1.125 2.25 0 0 Z " fill="#F2F0EE" transform="translate(697,752)"/>
<path d="M0 0 C3.5 -0.3125 3.5 -0.3125 7 0 C7.66 0.66 8.32 1.32 9 2 C5.37 2.33 1.74 2.66 -2 3 C-1.34 2.01 -0.68 1.02 0 0 Z " fill="#EDECE9" transform="translate(488,689)"/>
<path d="M0 0 C1.9375 1.125 1.9375 1.125 4 3 C4.75 6.1875 4.75 6.1875 5 9 C4.34 9 3.68 9 3 9 C0 3.375 0 3.375 0 0 Z " fill="#EFEEEC" transform="translate(346,731)"/>
<path d="M0 0 C0 3 0 3 0 3 Z M-3 4 C-2.67 4.66 -2.34 5.32 -2 6 C-3.32 7.32 -4.64 8.64 -6 10 C-6 7 -6 7 -4.5 5.3125 C-3.7575 4.6628125 -3.7575 4.6628125 -3 4 Z " fill="#ECEBE9" transform="translate(775,837)"/>
<path d="M0 0 C1.31223496 3.93670488 0.24296256 6.12488144 -1 10 C-1.66 9.34 -2.32 8.68 -3 8 C-2.60495559 5.0371669 -1.40182371 2.61673759 0 0 Z " fill="#EFEFEE" transform="translate(117,999)"/>
<path d="M0 0 C0.66 0 1.32 0 2 0 C1.67 2.31 1.34 4.62 1 7 C0.01 7.33 -0.98 7.66 -2 8 C-1.34 5.36 -0.68 2.72 0 0 Z " fill="#F6F5F2" transform="translate(256,536)"/>
</svg>
